<svg width="47" height="47" viewBox="0 0 47 47" fill="none" xmlns="http://www.w3.org/2000/svg">
<path d="M19.6225 46.765C8.46 44.7675 0 35.1325 0 23.5C0 10.575 10.575 0 23.5 0C36.425 0 47 10.575 47 23.5C47 35.1325 38.54 44.7675 27.3775 46.765L26.085 45.7075H20.915L19.6225 46.765Z" fill="url(#paint0_linear_429_147)"/>
<path d="M32.6652 30.08L33.7227 23.5H27.4952V18.9175C27.4952 17.0375 28.2002 15.6275 31.0202 15.6275H34.0752V9.63498C32.4302 9.39998 30.5502 9.16498 28.9052 9.16498C23.5002 9.16498 19.7402 12.455 19.7402 18.33V23.5H13.8652V30.08H19.7402V46.6475C21.0327 46.8825 22.3252 47 23.6177 47C24.9102 47 26.2027 46.8825 27.4952 46.6475V30.08H32.6652Z" fill="white"/>
<defs>
<linearGradient id="paint0_linear_429_147" x1="23.5012" y1="45.3655" x2="23.5012" y2="-0.00865713" gradientUnits="userSpaceOnUse">
<stop stop-color="#0062E0"/>
<stop offset="1" stop-color="#19AFFF"/>
</linearGradient>
</defs>
</svg>
