<svg width="40" height="40" viewBox="0 0 40 40" fill="none" xmlns="http://www.w3.org/2000/svg">
<path d="M34.0813 34.0821H28.1549V24.7981C28.1549 22.5846 28.115 19.7342 25.072 19.7342C21.9853 19.7342 21.5127 22.1457 21.5127 24.6355V34.0813H15.5863V14.9948H21.2756V17.6035H21.3523C21.9218 16.6299 22.7447 15.829 23.7333 15.2861C24.7219 14.7432 25.8393 14.4787 26.9664 14.5206C32.9734 14.5206 34.0813 18.472 34.0813 23.6119V34.0821ZM8.89878 12.3853C8.21844 12.3854 7.55334 12.1838 6.98759 11.806C6.42184 11.4281 5.98085 10.8909 5.7204 10.2624C5.45994 9.63394 5.39171 8.94231 5.52434 8.27503C5.65698 7.60775 5.98451 6.99479 6.46553 6.51367C6.94654 6.03254 7.55943 5.70487 8.22668 5.57209C8.89393 5.4393 9.58557 5.50738 10.2141 5.76769C10.8427 6.02801 11.3799 6.46888 11.7579 7.03455C12.1359 7.60021 12.3377 8.26527 12.3377 8.9456C12.3377 9.85773 11.9754 10.7325 11.3305 11.3775C10.6856 12.0226 9.8109 12.3851 8.89878 12.3853ZM11.862 34.0813H5.92945V14.9948H11.8627L11.862 34.0813ZM37.033 0.00308813H2.95091C2.56751 -0.0015723 2.18695 0.0694375 1.83103 0.212052C1.47511 0.354667 1.15081 0.566086 0.876708 0.834203C0.602605 1.10232 0.384078 1.42187 0.23364 1.77456C0.0832017 2.12724 0.00380599 2.50614 0 2.88955V37.1097C0.00910675 37.8838 0.32509 38.6225 0.878537 39.1638C1.43198 39.705 2.17763 40.0044 2.95168 39.9962H37.033C37.809 40.0066 38.5575 39.7084 39.1138 39.1672C39.67 38.6259 39.9885 37.8858 39.9992 37.1097V2.88342C39.9881 2.10781 39.6694 1.36838 39.1131 0.827792C38.5568 0.287199 37.8086 -0.0102814 37.033 0.000786415" fill="#0A66C2"/>
</svg>
