<svg width="29" height="33" viewBox="0 0 29 33" fill="none" xmlns="http://www.w3.org/2000/svg">
<path d="M25.3134 6.48004C25.2907 6.31494 25.146 6.22369 25.0265 6.21366C24.9071 6.20364 22.3813 6.01665 22.3813 6.01665C22.3813 6.01665 20.6271 4.27679 20.4347 4.08427C20.242 3.89174 19.8658 3.95029 19.7198 3.99328C19.6981 3.99961 19.3365 4.11117 18.738 4.29605C18.152 2.61157 17.1179 1.06345 15.2985 1.06345C15.2484 1.06345 15.1966 1.06556 15.1449 1.06846C14.6275 0.384856 13.9865 0.0878906 13.4329 0.0878906C9.19488 0.0878906 7.1701 5.38079 6.53521 8.07062C4.88846 8.58042 3.71847 8.94279 3.56905 8.98974C2.64985 9.27774 2.62081 9.30675 2.50017 10.1721C2.40909 10.8272 0.00390625 29.41 0.00390625 29.41L18.7457 32.9182L28.9007 30.7234C28.9007 30.7234 25.3359 6.64513 25.3134 6.48004ZM17.7021 4.61622C17.2314 4.7618 16.6963 4.92716 16.1164 5.1065C16.1169 4.99494 16.1174 4.88497 16.1174 4.76497C16.1174 3.71794 15.972 2.87504 15.7386 2.20674C16.676 2.32436 17.3003 3.38985 17.7021 4.61622ZM14.5757 2.4143C14.8363 3.06678 15.0058 4.00304 15.0058 5.26659C15.0058 5.33121 15.0052 5.39028 15.0047 5.45015C13.9733 5.76927 12.8527 6.11582 11.7294 6.46342C12.3601 4.03178 13.5422 2.85737 14.5757 2.4143ZM13.3165 1.22353C13.4995 1.22353 13.6837 1.28551 13.8601 1.40683C12.5019 2.04533 11.046 3.65359 10.4311 6.86509C9.53252 7.14307 8.65424 7.41471 7.84221 7.66605C8.56237 5.21648 10.2725 1.22353 13.3165 1.22353Z" fill="#95BF46"/>
<path d="M25.0258 6.21358C24.9065 6.20355 22.3807 6.01657 22.3807 6.01657C22.3807 6.01657 20.6265 4.27671 20.434 4.08418C20.362 4.01244 20.2648 3.97579 20.1632 3.95996L18.7461 32.9178L28.9001 30.7232C28.9001 30.7232 25.3352 6.64505 25.3128 6.47995C25.2901 6.31485 25.1454 6.2236 25.0258 6.21358Z" fill="#5E8E3E"/>
<path d="M15.2976 11.8194L14.0455 15.5404C14.0455 15.5404 12.9483 14.9555 11.6036 14.9555C9.63213 14.9555 9.53288 16.1916 9.53288 16.5031C9.53288 18.2026 13.9673 18.8537 13.9673 22.8345C13.9673 25.9664 11.979 27.9832 9.29793 27.9832C6.08071 27.9832 4.43555 25.9828 4.43555 25.9828L5.29694 23.1394C5.29694 23.1394 6.98804 24.59 8.41515 24.59C9.34756 24.59 9.72691 23.8565 9.72691 23.3206C9.72691 21.1037 6.0889 21.0048 6.0889 17.362C6.0889 14.2961 8.29161 11.3291 12.7379 11.3291C14.4512 11.3291 15.2976 11.8194 15.2976 11.8194Z" fill="white"/>
</svg>
