<svg width="103" height="103" viewBox="0 0 103 103" fill="none" xmlns="http://www.w3.org/2000/svg">
<g clip-path="url(#clip0_1611_5369)">
<path d="M95.6848 79.3142C95.6651 79.2859 95.6466 79.2571 95.6283 79.2279L56.4926 17.2015C54.1729 13.5261 48.8171 13.5322 46.501 17.2017L7.19735 79.4947C4.71992 83.4215 7.54839 88.5536 12.193 88.5536H90.807C95.5547 88.5536 98.3506 83.2109 95.6848 79.3142Z" fill="#C6271A"/>
<path d="M11.7315 85.5C10.6925 83.6156 10.7601 81.3146 11.9082 79.4948L51.2121 17.202C51.8592 16.1767 52.7826 15.3995 53.8524 14.9356C51.232 13.7996 48.0949 14.6765 46.501 17.202L7.19735 79.4948C4.71992 83.4217 7.54839 88.5537 12.193 88.5537H16.9041C14.7525 88.5537 12.7706 87.3835 11.7315 85.5Z" fill="#AF221B"/>
<path d="M90.8073 94.8261H12.1933C2.62033 94.8261 -3.21646 84.2469 1.89289 76.1477L41.1972 13.855C45.9786 6.27824 57.0225 6.28669 61.7975 13.8546L100.903 75.8319C106.354 83.895 100.542 94.8261 90.8073 94.8261ZM46.9386 17.4779L7.63493 79.7706C5.37436 83.3539 7.95519 88.0369 12.1935 88.0369H90.8075C95.1363 88.0369 97.693 83.165 95.2608 79.6091C95.2369 79.5745 95.2141 79.5395 95.1918 79.5039L56.0559 17.4777C53.9392 14.1239 49.0521 14.129 46.9386 17.4779Z" fill="#F74C48"/>
<path d="M6.02795 76.1478L45.332 13.8548C47.2025 10.891 50.1881 8.9237 53.5646 8.34955C48.7332 7.52877 43.8693 9.61995 41.197 13.8548L1.89267 76.1478C-3.21507 84.2443 2.61689 94.8261 12.1931 94.8261H16.3281C6.75539 94.8259 0.918601 84.2467 6.02795 76.1478Z" fill="#D63322"/>
<path d="M51.5004 30.8252C49.016 30.8252 47.001 32.8397 47.001 35.3246V61.4524C47.001 63.9373 49.016 65.9518 51.5004 65.9518C53.9858 65.9518 56 63.9373 56 61.4524V35.3246C56 32.8397 53.9858 30.8252 51.5004 30.8252Z" fill="#F2F2F2"/>
<path d="M51.4994 83.3125C53.9843 83.3125 55.9988 81.298 55.9988 78.8131C55.9988 76.3282 53.9843 74.3137 51.4994 74.3137C49.0144 74.3137 47 76.3282 47 78.8131C47 81.298 49.0144 83.3125 51.4994 83.3125Z" fill="#F2F2F2"/>
</g>
<defs>
<clipPath id="clip0_1611_5369">
<rect width="103" height="103" fill="white"/>
</clipPath>
</defs>
</svg>
