<svg width="20" height="20" viewBox="0 0 20 20" fill="none" xmlns="http://www.w3.org/2000/svg">
<path d="M17.2178 16.1469C9.12188 19.9999 4.09744 16.7762 0.88113 14.8182C0.682106 14.6948 0.343835 14.8471 0.637332 15.1842C1.70884 16.4834 5.22042 19.6149 9.80404 19.6149C14.3908 19.6149 17.1195 17.1122 17.4609 16.6756C17.7999 16.2427 17.5604 16.0039 17.2178 16.1469H17.2178ZM19.4916 14.8912C19.2742 14.6081 18.1696 14.5553 17.4744 14.6407C16.7782 14.7237 15.7331 15.1492 15.824 15.4047C15.8706 15.5004 15.9658 15.4574 16.4441 15.4144C16.9237 15.3666 18.2672 15.197 18.5472 15.563C18.8284 15.9315 18.1186 17.6869 17.989 17.97C17.8638 18.2532 18.0369 18.3262 18.2721 18.1376C18.5042 17.9491 18.9242 17.461 19.2061 16.7702C19.486 16.0757 19.6568 15.1068 19.4915 14.8912H19.4916Z" fill="#FF9900"/>
<path fill-rule="evenodd" clip-rule="evenodd" d="M11.7742 8.28499C11.7742 9.29595 11.7998 10.1391 11.2888 11.0369C10.8763 11.7669 10.223 12.2158 9.49311 12.2158C8.49668 12.2158 7.91638 11.4566 7.91638 10.3362C7.91638 8.12435 9.89816 7.72292 11.7742 7.72292V8.28499ZM14.3911 14.61C14.2195 14.7633 13.9713 14.7743 13.7779 14.6721C12.9166 13.9567 12.7633 13.6246 12.2888 12.9421C10.8654 14.3947 9.85807 14.829 8.01132 14.829C5.82875 14.829 4.12793 13.4822 4.12793 10.7851C4.12793 8.67919 5.27037 7.24479 6.89441 6.54409C8.30327 5.92355 10.2705 5.81408 11.7742 5.6426V5.30679C11.7742 4.68994 11.8216 3.96001 11.4603 3.42718C11.1428 2.94904 10.5369 2.75194 10.004 2.75194C9.01497 2.75194 8.13171 3.25923 7.91638 4.31036C7.87253 4.544 7.70105 4.77395 7.46748 4.78488L4.9491 4.51485C4.73746 4.4673 4.5039 4.29582 4.56229 3.97094C5.14259 0.919802 7.89807 0 10.3653 0C11.6281 0 13.2778 0.335809 14.2742 1.29208C15.5371 2.47091 15.4166 4.04394 15.4166 5.75569V9.79963C15.4166 11.015 15.9203 11.5478 16.3947 12.2048C16.5626 12.4384 16.5991 12.7195 16.3874 12.8946C15.8582 13.3362 14.9165 14.1575 14.3983 14.6174L14.391 14.61" fill="white"/>
</svg>
