<svg width="50" height="50" viewBox="0 0 50 50" fill="none" xmlns="http://www.w3.org/2000/svg">
<path d="M45.2744 38.7813C47.5872 35.0991 48.9262 30.7432 48.9262 26.0739C48.9262 12.86 38.2142 2.14795 25.0002 2.14795C11.7862 2.14795 1.07422 12.86 1.07422 26.0739C1.07422 30.7433 2.41309 35.0992 4.72598 38.7814L45.2744 38.7813Z" fill="#007DF2"/>
<path d="M36.8354 20.1726C36.675 18.4495 34.7836 18.0957 34.7376 16.356C34.7369 16.3285 34.7376 16.3016 34.7379 16.2744H15.262C15.2623 16.3016 15.263 16.3286 15.2623 16.356C15.2163 18.0956 13.3249 18.4494 13.1646 20.1726C13.0682 21.2081 13.6677 22.047 14.2048 22.6739C14.7419 23.301 15.3388 24.1485 15.2344 25.1822C15.117 26.3446 14.2027 26.8517 13.8337 27.8781C13.4522 28.9397 13.7631 30.3441 14.3366 31.1692C14.9101 31.9943 15.6824 32.377 16.4279 32.736H33.5721C34.3175 32.377 35.0899 31.9943 35.6633 31.1692C36.2367 30.3441 36.5477 28.9397 36.1662 27.8781C35.7974 26.8517 34.8829 26.3446 34.7656 25.1822C34.6612 24.1485 35.258 23.301 35.7951 22.6739C36.3323 22.047 36.9318 21.2081 36.8354 20.1726Z" fill="#56415E"/>
<path d="M35.6634 31.1691C36.2368 30.344 36.5478 28.9396 36.1663 27.878C35.7975 26.8516 34.883 26.3445 34.7656 25.1821C34.7241 24.7716 34.7945 24.3909 34.9265 24.0412C31.788 24.47 32.0488 22.0832 32.0488 22.0832C32.0488 22.0832 30.2537 19.57 28.3656 16.2744H15.262C15.2623 16.3016 15.263 16.3286 15.2623 16.356C15.2163 18.0956 13.3249 18.4494 13.1646 20.1726C13.0682 21.2081 13.6677 22.047 14.2048 22.6739C14.7419 23.301 15.3387 24.1485 15.2343 25.1822C15.1169 26.3446 14.2026 26.8517 13.8336 27.8781C13.4521 28.9397 13.7631 30.3441 14.3366 31.1692C14.91 31.9943 15.6824 32.377 16.4278 32.736H33.572C34.3176 32.3769 35.09 31.9942 35.6634 31.1691Z" fill="#45304C"/>
<path d="M19.15 30.2368C19.3436 32.4012 20.5272 34.5092 22.6685 36.5021C22.9287 36.7444 22.9862 37.0683 22.902 37.3491H27.2299C27.1455 37.0684 27.2029 36.7446 27.4634 36.5021C29.5792 34.5329 30.7605 32.45 30.9745 30.3116C30.9993 30.0639 31.1099 29.8538 31.2689 29.6995C30.0184 28.9527 29.1253 28.0497 29.1253 26.9926V26.22C28.1258 27.1134 26.4119 28.2518 25.0004 28.286C23.5889 28.2518 21.875 27.1135 20.8756 26.22V26.9926C20.8756 28.0155 20.0389 28.8941 18.8516 29.6265C19.0147 29.7781 19.1276 29.9872 19.15 30.2368Z" fill="#CC8C60"/>
<path d="M20.8756 26.22V26.9926C20.8756 28.0155 20.0389 28.8941 18.8516 29.6265C19.0146 29.7781 19.1275 29.9871 19.1498 30.2368C19.298 31.8951 20.0283 33.5202 21.3243 35.0858C21.3654 35.0551 21.4058 35.0248 21.444 34.9951C24.1496 32.9002 24.8426 29.924 25.0126 28.2854C25.0086 28.2855 25.0045 28.2859 25.0005 28.286C23.5889 28.2518 21.875 27.1135 20.8756 26.22Z" fill="#BA7D54"/>
<path d="M21.8565 35.9954L13.5231 31.7302C12.0411 32.1329 10.927 32.3363 10.927 32.3363C9.71484 32.5691 7.05449 33.4156 5.53877 36.4471C5.21172 37.1011 4.94346 37.8911 4.72559 38.7815C6.41221 41.4668 8.61777 43.7928 11.2011 45.6203L21.8565 45.6302V35.9954Z" fill="#8417C2"/>
<path d="M44.4611 36.447C42.9453 33.4154 40.2851 32.5689 39.0729 32.3361C39.0729 32.3361 38.0818 32.1552 36.7257 31.7969L28.3203 36.0055V45.6362L38.7622 45.646C41.3612 43.8146 43.5796 41.4793 45.2742 38.7813C45.0564 37.8909 44.7882 37.101 44.4611 36.447Z" fill="#A221E1"/>
<path d="M32.7896 33.7678L27.7855 36.2733V37.15H22.2146V36.1785L18.6015 34.3293L18.4935 43.6644C18.4935 43.6644 16.365 46.0192 18.1268 48.9972C20.3037 49.6492 22.6108 50 25.0001 50C30.1238 50 34.8707 48.3886 38.7635 45.6461V40.8651C38.7635 36.6762 34.5438 34.4941 32.7896 33.7678Z" fill="#C663F6"/>
<path d="M18.6886 43.6644L18.7954 34.4285L17.358 33.6929C15.7382 34.3347 11.1992 36.5204 11.1992 40.865V45.6202C13.3517 47.1428 15.767 48.318 18.3631 49.0662C16.5271 46.0556 18.6886 43.6644 18.6886 43.6644Z" fill="#A221E1"/>
<path d="M28.329 38.0656C30.102 37.5821 33.3596 36.4963 35.8097 34.5446C36.0979 34.3151 36.3541 34.0611 36.5783 33.7881C37.4734 32.6977 36.9768 31.0432 35.6304 30.6217C34.5731 30.2907 33.4472 29.879 32.4419 29.3876C31.7328 29.041 30.9041 29.5111 30.8255 30.2965C30.6539 32.0111 29.7913 34.1309 27.3611 36.3927C27.0787 36.6556 26.9674 37.0682 27.1042 37.4526C27.2798 37.9457 27.8239 38.2034 28.329 38.0656Z" fill="#D57EFF"/>
<path d="M22.7693 36.3928C21.3035 35.0284 20.4081 33.7157 19.8905 32.5124C19.2703 32.3491 15.9437 31.6358 14.9222 34.7996C14.9047 34.8538 14.8866 34.9061 14.8682 34.9566C17.2377 36.6506 20.1577 37.6174 21.8017 38.0656C22.3067 38.2034 22.8509 37.9457 23.0265 37.4526C23.1631 37.0684 23.0518 36.6557 22.7693 36.3928Z" fill="#D57EFF"/>
<path d="M18.6886 43.6645C18.2218 43.6645 17.8398 43.2826 17.8398 42.8158V35.8438C17.8398 35.3771 18.2218 34.9951 18.6886 34.9951C19.1554 34.9951 19.5373 35.3771 19.5373 35.8438V42.8157C19.5373 43.2826 19.1554 43.6645 18.6886 43.6645Z" fill="#DEEEFF"/>
<path d="M31.3116 43.6645C30.8448 43.6645 30.4629 43.2826 30.4629 42.8158V35.8438C30.4629 35.3771 30.8448 34.9951 31.3116 34.9951C31.7784 34.9951 32.1604 35.3771 32.1604 35.8438V42.8157C32.1604 43.2826 31.7784 43.6645 31.3116 43.6645Z" fill="#DEEEFF"/>
<path d="M40.4436 7.80103C38.8086 9.12808 37.6133 11.0487 38.5548 13.6115C42.5569 24.5051 34.1469 24.0281 42.3616 29.2122C44.9009 30.8147 46.5365 32.6606 47.5401 34.1137C48.437 31.601 48.9263 28.8949 48.9263 26.074C48.9263 18.7466 45.6314 12.1899 40.4436 7.80103Z" fill="#46A6FF"/>
<path d="M9.55693 7.80103C11.1919 9.12808 12.3872 11.0487 11.4457 13.6115C7.44365 24.5051 15.8536 24.0281 7.63896 29.2122C5.09961 30.8147 3.46406 32.6606 2.46045 34.1137C1.56357 31.601 1.07422 28.8949 1.07422 26.074C1.07422 18.7466 4.36914 12.1899 9.55693 7.80103Z" fill="#46A6FF"/>
<path d="M20.4514 1.81074C20.6231 1.77617 20.7773 1.68525 20.906 1.56641C21.4034 1.10664 22.8859 0 25.6305 0C28.7151 0 36.3456 2.35732 35.2657 14.7323H14.7924C14.6109 12.5631 14.5467 9.99072 15.3046 7.42275C16.441 3.57227 18.6136 2.18047 20.4514 1.81074Z" fill="#56415E"/>
<path d="M14.7924 14.7323H27.5097C26.3457 12.567 25.2446 10.2017 24.6122 8.04795C22.8054 1.89512 29.7337 1.06719 29.7337 1.06719C28.1883 0.262012 26.6574 0 25.6305 0C22.8859 0 21.4034 1.10664 20.906 1.56631C20.7772 1.68525 20.623 1.77607 20.4513 1.81064C18.6136 2.18037 16.4409 3.57217 15.3045 7.42275C14.5467 9.99072 14.6109 12.5631 14.7924 14.7323Z" fill="#45304C"/>
<path d="M16.9964 18.313C16.9964 18.313 16.5003 15.1732 17.0717 13.3034C16.5532 12.9578 15.5516 12.7891 15.1011 13.2295C14.1787 14.1311 14.8545 15.4929 15.1779 16.353C15.2772 16.6171 15.3413 16.8842 15.3702 17.1518C15.4331 17.7333 15.7484 18.5844 17.0557 18.5643C17.0359 18.4806 17.0156 18.3981 16.9964 18.313Z" fill="#BA7D54"/>
<path d="M34.8993 13.2295C34.4488 12.7891 33.4472 12.9578 32.9287 13.3034C33.5001 15.1732 33.004 18.313 33.004 18.313C32.9847 18.3981 32.9645 18.4806 32.9447 18.5643C34.252 18.5845 34.5673 17.7333 34.6302 17.1518C34.6592 16.8842 34.7231 16.6171 34.8225 16.353C35.1459 15.4929 35.8217 14.1312 34.8993 13.2295Z" fill="#CC8C60"/>
<path d="M33.5331 13.967C33.4679 13.2989 32.8946 12.7937 32.2234 12.8059C30.1474 12.8435 27.2227 11.8603 25.8655 9.63247C25.4192 8.89976 24.9595 8.36021 24.5158 7.96069C23.3476 9.18394 22.978 10.8629 22.978 10.8629C22.97 11.1315 22.8618 11.3905 22.6648 11.6124C21.5797 12.8352 21.8173 16.4078 22.0705 17.8787C22.6312 20.3535 23.4434 22.5114 24.4842 24.2926C25.2651 25.6292 26.3443 26.7445 27.6494 27.5805C29.0383 26.7427 30.182 25.5922 30.9969 24.1979C32.0226 22.4426 32.8232 20.3155 33.377 17.8713C33.5205 16.9584 33.6692 15.3624 33.5331 13.967Z" fill="#DBA783"/>
<path d="M24.5311 24.198C23.5052 22.4422 22.7047 20.3151 22.152 17.8758C21.9024 16.426 21.6682 12.9044 22.7379 11.6991C22.932 11.4805 23.0387 11.2251 23.0466 10.9605C23.0466 10.9605 23.4207 9.25763 24.6114 8.04815C23.0923 6.61671 21.7379 6.87394 21.7379 6.87394C18.5051 7.0753 17.6524 10.9605 17.6524 10.9605C17.6445 11.2251 17.5379 11.4805 17.3437 11.6991C16.2741 12.9045 16.5083 16.426 16.7579 17.8758C17.3105 20.3151 18.1111 22.4422 19.137 24.198C20.1785 25.9804 21.7557 27.3666 23.6981 28.2069C24.5681 28.5832 25.5657 28.5832 26.4356 28.2069C26.9003 28.0059 27.3433 27.7728 27.7639 27.5113C26.4265 26.6798 25.3234 25.5539 24.5311 24.198Z" fill="#CC8C60"/>
<path d="M19.2987 30.2234C19.2283 29.4355 18.376 28.9802 17.6683 29.3334C16.6651 29.8342 15.5324 30.2541 14.4638 30.5923C13.1249 31.016 12.6429 32.6597 13.5244 33.753C13.7552 34.0395 14.0212 34.3054 14.3217 34.5447C14.5172 34.7005 14.7183 34.8501 14.9229 34.9949C16.0512 31.5006 19.9915 32.7359 19.9915 32.7359C19.5717 31.832 19.367 30.9865 19.2987 30.2234Z" fill="#C663F6"/>
</svg>
