 <svg viewBox="0 0 20 17">
<path fill-rule="evenodd" clip-rule="evenodd" d="M0 1C0 0.447716 0.447715 0 1 0H18.6364C19.1886 0 19.6364 0.447716 19.6364 1V3.53147C19.6364 4.08375 19.1886 4.53147 18.6364 4.53147H1C0.447716 4.53147 0 4.08375 0 3.53147V1ZM0 7C0 6.44772 0.447715 6 1 6H18.6364C19.1886 6 19.6364 6.44772 19.6364 7V9.53147C19.6364 10.0838 19.1886 10.5315 18.6364 10.5315H1C0.447716 10.5315 0 10.0838 0 9.53147V7ZM1 12C0.447715 12 0 12.4477 0 13V15.5315C0 16.0838 0.447716 16.5315 1 16.5315H18.6364C19.1886 16.5315 19.6364 16.0838 19.6364 15.5315V13C19.6364 12.4477 19.1886 12 18.6364 12H1Z" />
</svg>
