<svg width="263" height="263" viewBox="0 0 263 263" fill="none" xmlns="http://www.w3.org/2000/svg">
<path d="M263 131.5L262.842 164.454L262.525 178.08L261.891 188.378L260.94 197.092L259.831 204.538L258.406 211.192L256.663 217.213L254.603 222.599L252.385 227.511L249.85 232.106L246.998 236.225L243.83 240.027L240.344 243.513L236.542 246.681L232.422 249.533L227.828 252.068L222.916 254.286L217.53 256.346L211.509 258.089L204.855 259.515L197.409 260.624L188.695 261.574L178.396 262.208L164.771 262.525L131.5 263L98.5458 262.842L84.9205 262.525L74.6223 261.891L65.9085 260.94L58.4621 259.831L51.8079 258.406L45.7874 256.663L40.4006 254.603L35.4892 252.385L30.8946 249.85L26.7753 246.998L22.9729 243.83L19.4874 240.344L16.3187 236.542L13.4669 232.422L10.9319 227.828L8.71386 222.916L6.65422 217.53L4.91145 211.509L3.48554 204.855L2.37651 197.409L1.4259 188.695L0.792169 178.396L0.4753 164.771L0 131.5L0.158434 98.5458L0.4753 84.9205L1.10904 74.6223L2.05964 65.9085L3.16868 58.4621L4.59458 51.8079L6.33735 45.7874L8.39699 40.4006L10.6151 35.4892L13.15 30.8946L16.0018 26.7753L19.1705 22.9729L22.656 19.4874L26.4584 16.3187L30.5777 13.4669L35.1723 10.9319L40.0838 8.71386L45.4705 6.65422L51.491 4.91145L58.1452 3.48554L65.5916 2.37651L74.3055 1.4259L84.6037 0.792169L98.229 0.4753L131.5 0L164.454 0.158434L178.08 0.4753L188.378 1.10904L197.092 2.05964L204.538 3.16868L211.192 4.59458L217.213 6.33735L222.599 8.39699L227.511 10.6151L232.106 13.15L236.225 16.0018L240.027 19.1705L243.513 22.656L246.681 26.4584L249.533 30.5777L252.068 35.1723L254.286 40.0838L256.346 45.4705L258.089 51.491L259.515 58.1452L260.624 65.5916L261.574 74.3055L262.208 84.6037L262.525 98.229L263 131.5Z" fill="url(#paint0_linear_782_26862)"/>
<path d="M131.5 70.2516C85.4769 70.2516 48.2029 70.2516 48.2029 114.875V148.125C48.2029 192.748 85.4769 192.748 131.5 192.748C177.523 192.748 214.797 192.748 214.797 148.125V114.875C214.797 70.2516 177.523 70.2516 131.5 70.2516ZM177.523 118.9V144.1C175.074 164.574 155.299 162.999 131.5 162.999C105.951 162.999 85.4769 164.924 85.4769 139.199V123.801C85.4769 98.0756 105.951 100.001 131.5 100.001C155.299 100.001 175.074 98.4255 177.523 118.9Z" fill="url(#paint1_radial_782_26862)"/>
<defs>
<linearGradient id="paint0_linear_782_26862" x1="263" y1="131.5" x2="0" y2="131.5" gradientUnits="userSpaceOnUse">
<stop stop-color="#B342EB"/>
<stop offset="1" stop-color="#6B05CA"/>
</linearGradient>
<radialGradient id="paint1_radial_782_26862" cx="0" cy="0" r="1" gradientUnits="userSpaceOnUse" gradientTransform="translate(202.947 83.4582) rotate(-131.697) scale(235.093 235.093)">
<stop stop-color="#CF7CF8"/>
<stop offset="1" stop-color="#A221E1"/>
</radialGradient>
</defs>
</svg>
