<svg width="378" height="378" viewBox="0 0 378 378" fill="none" xmlns="http://www.w3.org/2000/svg">
<path d="M378 189L377.772 236.364L377.317 255.947L376.406 270.748L375.04 283.272L373.446 293.975L371.397 303.539L368.892 312.192L365.931 319.934L362.744 326.993L359.1 333.597L355.001 339.517L350.447 344.982L345.437 349.992L339.972 354.546L334.052 358.645L327.448 362.288L320.389 365.476L312.647 368.436L303.994 370.941L294.43 372.991L283.728 374.584L271.204 375.951L256.403 376.862L236.819 377.317L189 378L141.636 377.772L122.053 377.317L107.252 376.406L94.7277 375.04L84.0253 373.446L74.4615 371.397L65.8085 368.892L58.0663 365.931L51.0073 362.744L44.4036 359.1L38.4832 355.001L33.0181 350.447L28.0084 345.437L23.4542 339.972L19.3554 334.052L15.7121 327.448L12.5241 320.389L9.56386 312.647L7.05904 303.994L5.00964 294.43L3.41566 283.728L2.0494 271.204L1.13855 256.403L0.683131 236.819L0 189L0.227712 141.636L0.683131 122.053L1.59398 107.252L2.96024 94.7277L4.55422 84.0253L6.60362 74.4615L9.10844 65.8085L12.0687 58.0663L15.2566 51.0073L18.9 44.4036L22.9988 38.4832L27.553 33.0181L32.5627 28.0084L38.0277 23.4542L43.9482 19.3554L50.5518 15.7121L57.6109 12.5241L65.353 9.56386L74.0061 7.05904L83.5699 5.00964L94.2723 3.41566L106.796 2.0494L121.598 1.13855L141.181 0.683131L189 0L236.364 0.227712L255.947 0.683131L270.748 1.59398L283.272 2.96024L293.975 4.55422L303.539 6.60362L312.192 9.10844L319.934 12.0687L326.993 15.2566L333.597 18.9L339.517 22.9988L344.982 27.553L349.992 32.5627L354.546 38.0277L358.645 43.9482L362.288 50.5518L365.476 57.6109L368.436 65.353L370.941 74.0061L372.991 83.5699L374.584 94.2723L375.951 106.796L376.862 121.598L377.317 141.181L378 189Z" fill="url(#paint0_linear_782_26868)"/>
<path d="M189 100.97C122.853 100.97 69.2802 100.97 69.2802 165.106V212.894C69.2802 277.03 122.853 277.03 189 277.03C255.147 277.03 308.72 277.03 308.72 212.894V165.106C308.72 100.97 255.147 100.97 189 100.97ZM255.147 170.89V207.11C251.627 236.537 223.206 234.272 189 234.272C152.28 234.272 122.853 237.04 122.853 200.066V177.934C122.853 140.96 152.28 143.728 189 143.728C223.206 143.728 251.627 141.463 255.147 170.89Z" fill="url(#paint1_radial_782_26868)"/>
<defs>
<linearGradient id="paint0_linear_782_26868" x1="378" y1="189" x2="0" y2="189" gradientUnits="userSpaceOnUse">
<stop stop-color="#2490F8"/>
<stop offset="1" stop-color="#0040E7"/>
</linearGradient>
<radialGradient id="paint1_radial_782_26868" cx="0" cy="0" r="1" gradientUnits="userSpaceOnUse" gradientTransform="translate(291.688 119.951) rotate(-131.697) scale(337.89)">
<stop stop-color="#66B5FF"/>
<stop offset="1" stop-color="#0077E6"/>
</radialGradient>
</defs>
</svg>
