<svg viewBox="0 0 25 25">
<path d="M8.16932 11.254C8.33498 11.2542 8.494 11.1883 8.61115 11.0711C8.7283 10.954 8.7942 10.795 8.79397 10.6293C8.79397 10.2843 9.07381 10.0044 9.41886 10.0044C9.76391 10.0044 10.0437 10.2843 10.0437 10.6293C10.0437 10.9744 10.3234 11.254 10.6684 11.254C11.0137 11.254 11.2933 10.9744 11.2933 10.6293C11.2933 9.59393 10.454 8.75488 9.41886 8.75488C8.38371 8.75488 7.54443 9.59393 7.54443 10.6293C7.54443 10.795 7.6101 10.954 7.72725 11.0711C7.84463 11.1883 8.00343 11.2542 8.16932 11.254Z"/>
<path d="M16.6373 15.3816C14.3039 16.5481 10.7827 16.5481 8.44887 15.3816C8.1402 15.2272 7.76495 15.3523 7.6105 15.661C7.45628 15.9696 7.58121 16.3451 7.88988 16.4993C9.34421 17.1853 10.9354 17.5308 12.543 17.5098C14.1506 17.5308 15.742 17.1851 17.1961 16.4993C17.5048 16.3451 17.6299 15.9696 17.4757 15.661C17.3213 15.3523 16.946 15.2272 16.6373 15.3816Z"/>
<path d="M23.1649 10.0048H22.54V8.13036C22.5384 6.40581 21.1406 5.008 19.416 5.0064H17.5416V3.64154C18.4021 3.33745 18.9186 2.45721 18.7641 1.55752C18.6097 0.657604 17.8297 0 16.9167 0C16.0037 0 15.2237 0.657604 15.0693 1.55752C14.9148 2.45721 15.4313 3.33745 16.2918 3.64154V5.0064H8.79411V3.64154C9.6549 3.33745 10.1711 2.45721 10.0169 1.55752C9.86243 0.657604 9.08242 0 8.16946 0C7.2565 0 6.47625 0.657604 6.32203 1.55752C6.16758 2.45721 6.68378 3.33745 7.54457 3.64154V5.0064H5.67015C3.9456 5.00823 2.54801 6.40581 2.54618 8.13036V10.0048H1.9213C0.886613 10.0059 0.048019 10.8445 0.046875 11.8792V14.3785C0.048019 15.4132 0.886613 16.2518 1.9213 16.2529H2.54618V18.752C2.54801 20.4768 3.9456 21.8744 5.67015 21.8762H8.79411V24.3753C8.79434 24.6025 8.91767 24.8116 9.11628 24.9217C9.31489 25.0318 9.55766 25.0254 9.75009 24.905L14.5968 21.8762H19.416C21.1406 21.8746 22.5384 20.4768 22.54 18.752V16.2529H23.1649C24.1995 16.2518 25.0381 15.4132 25.0393 14.3785V11.8792C25.0381 10.8445 24.1995 10.0059 23.1649 10.0048V10.0048ZM16.9167 1.25755C17.2617 1.25755 17.5416 1.53716 17.5416 1.8822C17.5416 2.22748 17.2617 2.50709 16.9167 2.50709C16.5716 2.50709 16.2918 2.22748 16.2918 1.8822C16.2925 1.53761 16.5719 1.25823 16.9167 1.25755ZM8.16946 1.25755C8.51451 1.25755 8.79411 1.53716 8.79411 1.8822C8.79411 2.22748 8.51451 2.50709 8.16946 2.50709C7.82441 2.50709 7.54457 2.22748 7.54457 1.8822C7.54503 1.53739 7.82441 1.25801 8.16946 1.25755ZM1.9213 15.0032C1.57648 15.0029 1.29687 14.7233 1.29642 14.3785V11.8792C1.29687 11.5344 1.57648 11.2548 1.9213 11.2543H2.54618V15.0032H1.9213ZM21.2904 18.752C21.2893 19.7869 20.4507 20.6255 19.416 20.6264H14.4174C14.3005 20.6264 14.1858 20.6594 14.0868 20.7216L10.0439 23.2477V21.2513C10.0439 21.0857 9.97821 20.9266 9.86083 20.8095C9.74368 20.6923 9.58466 20.6264 9.419 20.6264H5.67015C4.63546 20.6255 3.79687 19.7869 3.79572 18.752V8.13036C3.79687 7.09568 4.63546 6.25708 5.67015 6.25594H19.416C20.4507 6.25708 21.2893 7.09568 21.2904 8.13036V18.752ZM23.7895 14.3785C23.7891 14.7233 23.5097 15.0027 23.1649 15.0032H22.54V11.2543H23.1649C23.5097 11.255 23.7891 11.5344 23.7895 11.8792V14.3785Z"/>
<path d="M15.6669 8.75488C14.6322 8.75603 13.7936 9.59462 13.7925 10.6293C13.7925 10.9744 14.0721 11.254 14.4171 11.254C14.7624 11.254 15.042 10.9744 15.042 10.6293C15.042 10.2843 15.3219 10.0044 15.6669 10.0044C16.012 10.0044 16.2916 10.2843 16.2916 10.6293C16.2916 10.9744 16.5714 11.254 16.9164 11.254C17.2615 11.254 17.5413 10.9744 17.5413 10.6293C17.5402 9.59462 16.7016 8.75603 15.6669 8.75488V8.75488Z" />
</svg>
