<svg viewBox="0 0 20 20"><path d="M19.4141 5.35156H18.3984V4.6875C18.3984 4.36391 18.1361 4.10156 17.8125 4.10156C17.4889 4.10156 17.2266 4.36391 17.2266 4.6875V5.35156H14.9609V3.125C14.9609 2.80141 14.6986 2.53906 14.375 2.53906H13.0859V0.585938C13.0859 0.262344 12.8236 0 12.5 0H7.5C7.17641 0 6.91406 0.262344 6.91406 0.585938V2.53906H5.625C5.30141 2.53906 5.03906 2.80141 5.03906 3.125V9.41406H2.46094V8.75C2.46094 8.42641 2.19859 8.16406 1.875 8.16406C1.55141 8.16406 1.28906 8.42641 1.28906 8.75V9.41406H0.585938C0.262344 9.41406 0 9.67641 0 10V19.4141C0 19.7377 0.262344 20 0.585938 20H19.4141C19.7377 20 20 19.7377 20 19.4141V5.9375C20 5.61391 19.7377 5.35156 19.4141 5.35156ZM8.08594 1.17188H11.9141V2.53906H8.08594V1.17188ZM1.17188 10.5859H5.03906V18.8281H1.17188V10.5859ZM6.21094 10V3.71094H7.5H12.5H13.7891V5.9375V18.8281H11.8359V16.8359H11.875C12.1986 16.8359 12.4609 16.5736 12.4609 16.25C12.4609 15.9264 12.1986 15.6641 11.875 15.6641H11.25H8.75H8.125C7.80141 15.6641 7.53906 15.9264 7.53906 16.25C7.53906 16.5736 7.80141 16.8359 8.125 16.8359H8.16406V18.8281H6.21094V10ZM9.33594 18.8281V16.8359H10.6641V18.8281H9.33594ZM18.8281 18.8281H14.9609V6.52344H18.8281V18.8281Z" /><path d="M8.125 6.21094H8.75C9.07359 6.21094 9.33594 5.94859 9.33594 5.625C9.33594 5.30141 9.07359 5.03906 8.75 5.03906H8.125C7.80141 5.03906 7.53906 5.30141 7.53906 5.625C7.53906 5.94859 7.80141 6.21094 8.125 6.21094Z" /><path d="M3.4375 11.6016H2.8125C2.48891 11.6016 2.22656 11.8639 2.22656 12.1875C2.22656 12.5111 2.48891 12.7734 2.8125 12.7734H3.4375C3.76109 12.7734 4.02344 12.5111 4.02344 12.1875C4.02344 11.8639 3.76109 11.6016 3.4375 11.6016Z" /><path d="M3.4375 13.7891H2.8125C2.48891 13.7891 2.22656 14.0514 2.22656 14.375C2.22656 14.6986 2.48891 14.9609 2.8125 14.9609H3.4375C3.76109 14.9609 4.02344 14.6986 4.02344 14.375C4.02344 14.0514 3.76109 13.7891 3.4375 13.7891Z"/><path d="M3.4375 15.9766H2.8125C2.48891 15.9766 2.22656 16.2389 2.22656 16.5625C2.22656 16.8861 2.48891 17.1484 2.8125 17.1484H3.4375C3.76109 17.1484 4.02344 16.8861 4.02344 16.5625C4.02344 16.2389 3.76109 15.9766 3.4375 15.9766Z"/><path d="M17.1875 7.53906H16.5625C16.2389 7.53906 15.9766 7.80141 15.9766 8.125C15.9766 8.44859 16.2389 8.71094 16.5625 8.71094H17.1875C17.5111 8.71094 17.7734 8.44859 17.7734 8.125C17.7734 7.80141 17.5111 7.53906 17.1875 7.53906Z"/><path d="M17.1875 9.72656H16.5625C16.2389 9.72656 15.9766 9.98891 15.9766 10.3125C15.9766 10.6361 16.2389 10.8984 16.5625 10.8984H17.1875C17.5111 10.8984 17.7734 10.6361 17.7734 10.3125C17.7734 9.98891 17.5111 9.72656 17.1875 9.72656Z" /><path d="M17.1875 11.9141H16.5625C16.2389 11.9141 15.9766 12.1764 15.9766 12.5C15.9766 12.8236 16.2389 13.0859 16.5625 13.0859H17.1875C17.5111 13.0859 17.7734 12.8236 17.7734 12.5C17.7734 12.1764 17.5111 11.9141 17.1875 11.9141Z" /><path d="M17.1875 14.1016H16.5625C16.2389 14.1016 15.9766 14.3639 15.9766 14.6875C15.9766 15.0111 16.2389 15.2734 16.5625 15.2734H17.1875C17.5111 15.2734 17.7734 15.0111 17.7734 14.6875C17.7734 14.3639 17.5111 14.1016 17.1875 14.1016Z" /><path d="M11.25 6.21094H11.875C12.1986 6.21094 12.4609 5.94859 12.4609 5.625C12.4609 5.30141 12.1986 5.03906 11.875 5.03906H11.25C10.9264 5.03906 10.6641 5.30141 10.6641 5.625C10.6641 5.94859 10.9264 6.21094 11.25 6.21094Z" /><path d="M8.125 8.71094H8.75C9.07359 8.71094 9.33594 8.44859 9.33594 8.125C9.33594 7.80141 9.07359 7.53906 8.75 7.53906H8.125C7.80141 7.53906 7.53906 7.80141 7.53906 8.125C7.53906 8.44859 7.80141 8.71094 8.125 8.71094Z" /><path d="M11.25 8.71094H11.875C12.1986 8.71094 12.4609 8.44859 12.4609 8.125C12.4609 7.80141 12.1986 7.53906 11.875 7.53906H11.25C10.9264 7.53906 10.6641 7.80141 10.6641 8.125C10.6641 8.44859 10.9264 8.71094 11.25 8.71094Z" /><path d="M8.125 11.2109H8.75C9.07359 11.2109 9.33594 10.9486 9.33594 10.625C9.33594 10.3014 9.07359 10.0391 8.75 10.0391H8.125C7.80141 10.0391 7.53906 10.3014 7.53906 10.625C7.53906 10.9486 7.80141 11.2109 8.125 11.2109Z"  /><path d="M11.25 11.2109H11.875C12.1986 11.2109 12.4609 10.9486 12.4609 10.625C12.4609 10.3014 12.1986 10.0391 11.875 10.0391H11.25C10.9264 10.0391 10.6641 10.3014 10.6641 10.625C10.6641 10.9486 10.9264 11.2109 11.25 11.2109Z" /><path d="M8.125 13.7109H8.75C9.07359 13.7109 9.33594 13.4486 9.33594 13.125C9.33594 12.8014 9.07359 12.5391 8.75 12.5391H8.125C7.80141 12.5391 7.53906 12.8014 7.53906 13.125C7.53906 13.4486 7.80141 13.7109 8.125 13.7109Z" /><path d="M11.25 13.7109H11.875C12.1986 13.7109 12.4609 13.4486 12.4609 13.125C12.4609 12.8014 12.1986 12.5391 11.875 12.5391H11.25C10.9264 12.5391 10.6641 12.8014 10.6641 13.125C10.6641 13.4486 10.9264 13.7109 11.25 13.7109Z" /></svg>