<svg  viewBox="0 0 20 14" fill="none" xmlns="http://www.w3.org/2000/svg">
<path fill-rule="evenodd" clip-rule="evenodd" d="M18.8 0.199951H1.2C0.538398 0.199951 0 0.73835 0 1.39995V3.7999V5.3999V12.6C0 13.2616 0.538398 13.7999 1.2 13.7999H18.8C19.4616 13.7999 20 13.2616 20 12.6V5.3999V3.7999V1.39995C20 0.73835 19.4616 0.199951 18.8 0.199951ZM0.8 3.3999H19.2V1.39995C19.2 1.17913 19.02 0.999951 18.8 0.999951H1.2C0.979219 0.999951 0.8 1.17913 0.8 1.39995V3.3999ZM0.8 5.7999H19.2V12.6C19.2 12.82 19.02 13 18.8 13H1.2C0.979219 13 0.8 12.82 0.8 12.6V5.7999ZM3.59995 8.19995H10.8C11.0207 8.19995 11.2 8.37913 11.2 8.59995C11.2 8.82073 11.0207 8.99995 10.8 8.99995H3.59995C3.37917 8.99995 3.19995 8.82073 3.19995 8.59995C3.19995 8.37917 3.37917 8.19995 3.59995 8.19995ZM7.59995 9.80005H3.59995C3.37917 9.80005 3.19995 9.97927 3.19995 10.2C3.19995 10.4208 3.37917 10.6 3.59995 10.6H7.59995C7.82073 10.6 7.99995 10.4208 7.99995 10.2C7.99995 9.97927 7.82073 9.80005 7.59995 9.80005Z" fill="currentColor"/>
</svg>