<svg viewBox="0 0 20 20">
<path d="M19.8851 0.114414C19.8118 0.0411719 19.7124 0 19.6088 0L9.99965 0.000507812C9.78395 0.000507812 9.60906 0.17543 9.60906 0.391133V1.5082L5.90637 2.50035C5.69797 2.55621 5.5743 2.77039 5.63016 2.97875L7.54918 10.1405L5.88906 11.8007C5.67777 11.4921 5.32301 11.2893 4.92172 11.2893H1.17184C0.525664 11.2893 0 11.815 0 12.4611V18.8281C0 19.4743 0.525664 20 1.17184 20H4.92176C5.4707 20 5.9325 19.6205 6.05906 19.1102L6.52352 19.5152C6.88207 19.8279 7.34144 20 7.81719 20H19.6089C19.8246 20 19.9995 19.8251 19.9995 19.6094V0.390625C19.9994 0.287031 19.9583 0.187656 19.8851 0.114414ZM5.3123 18.8282C5.3123 19.0435 5.13707 19.2188 4.92168 19.2188H1.1718C0.956406 19.2188 0.781172 19.0436 0.781172 18.8282V12.4611C0.781172 12.2457 0.956406 12.0705 1.1718 12.0705H2.65613V16.5703C2.65613 16.786 2.83105 16.9609 3.04676 16.9609C3.26246 16.9609 3.43738 16.786 3.43738 16.5703V12.0705H4.92172C5.13711 12.0705 5.31234 12.2457 5.31234 12.4611V18.8282H5.3123ZM6.48586 3.15387L9.60906 2.31699V3.76445L9.34727 3.83461C9.24715 3.86145 9.16187 3.92687 9.11008 4.0166C9.05828 4.10633 9.04422 4.21293 9.07105 4.31301C9.22117 4.8732 8.88754 5.45105 8.32734 5.60117C8.22715 5.62805 8.14172 5.69359 8.08996 5.78352C8.0382 5.8734 8.02426 5.9802 8.05133 6.08035L9.57395 11.7186H8.78996L8.38594 10.1379C8.37309 10.0876 8.35059 10.0412 8.32047 10.0009L6.48586 3.15387ZM9.60906 5.55582V8.85195L8.8966 6.21387C9.19422 6.06019 9.43777 5.83027 9.60906 5.55582ZM15.2209 19.2188H7.81711C7.5302 19.2188 7.25312 19.1149 7.03687 18.9264L6.09355 18.1037V12.7011L7.79895 10.9957L8.10824 12.2058C8.15246 12.3787 8.3082 12.4997 8.48668 12.4997L16.1665 12.5002C16.4681 12.5002 16.7134 12.7455 16.7134 13.047C16.7134 13.3486 16.4681 13.5939 16.1665 13.5939H12.2314C12.0157 13.5939 11.8407 13.7688 11.8407 13.9845C11.8407 14.2002 12.0157 14.3752 12.2314 14.3752H17.3892C17.6907 14.3752 17.9361 14.6205 17.9361 14.922C17.9361 15.2236 17.6907 15.4689 17.3892 15.4689H12.2314C12.0157 15.4689 11.8407 15.6438 11.8407 15.8595C11.8407 16.0752 12.0157 16.2502 12.2314 16.2502H16.5534C16.8549 16.2502 17.1002 16.4955 17.1002 16.797C17.1002 17.0986 16.8549 17.3439 16.5534 17.3439H12.2314C12.0157 17.3439 11.8407 17.5188 11.8407 17.7345C11.8407 17.9502 12.0157 18.1252 12.2314 18.1252H15.2209C15.5225 18.1252 15.7678 18.3705 15.7678 18.672C15.7678 18.9734 15.5225 19.2188 15.2209 19.2188ZM19.2182 19.2188H19.2182H16.4307C16.5065 19.0518 16.549 18.8668 16.549 18.6719C16.549 18.477 16.5065 18.2919 16.4307 18.125H16.5534C17.2857 18.125 17.8814 17.5292 17.8814 16.7969C17.8814 16.5833 17.8305 16.3815 17.7405 16.2025C18.3028 16.048 18.7172 15.5326 18.7172 14.922C18.7172 14.6257 18.6196 14.3518 18.4551 14.1307V9.17996C18.4551 8.96426 18.2802 8.78934 18.0645 8.78934C17.8488 8.78934 17.6738 8.96426 17.6738 9.17996V13.625C17.582 13.6048 17.4868 13.5939 17.3891 13.5939H17.3763C17.452 13.427 17.4946 13.242 17.4946 13.047C17.4946 12.3147 16.8988 11.7189 16.1665 11.7189H15.5386C16.2053 11.433 16.6736 10.7703 16.6736 10C16.6736 8.96918 15.835 8.13055 14.8042 8.13055C13.7734 8.13055 12.9348 8.96918 12.9348 10C12.9348 10.7703 13.4031 11.433 14.0698 11.7189H11.9345V4.29152C12.6323 4.13945 13.183 3.58887 13.335 2.89102H16.2733C16.4254 3.58887 16.976 4.13945 17.6738 4.29152V5.50598C17.6738 5.72168 17.8487 5.8966 18.0644 5.8966C18.2801 5.8966 18.455 5.72168 18.455 5.50598V3.94277C18.455 3.72707 18.2801 3.55215 18.0644 3.55215C17.4845 3.55215 17.0127 3.08031 17.0127 2.50039C17.0127 2.28469 16.8378 2.10977 16.6221 2.10977H12.9863C12.7706 2.10977 12.5957 2.28469 12.5957 2.50039C12.5957 3.08035 12.1239 3.55215 11.5439 3.55215C11.3282 3.55215 11.1533 3.72707 11.1533 3.94277V11.7189H10.3904V0.78168L19.2182 0.78125V19.2188ZM14.8043 11.0882C14.2042 11.0882 13.7161 10.6 13.7161 10C13.7161 9.40004 14.2043 8.91184 14.8043 8.91184C15.4043 8.91184 15.8924 9.4 15.8924 10C15.8924 10.6 15.4043 11.0882 14.8043 11.0882Z" />
</svg>

