<svg viewBox="0 0 15 15" >
<path d="M5.45656 8.75286C5.83668 9.09437 6.41312 9.09435 6.79322 8.75283L11.6735 4.36788C11.9063 4.15869 12.2594 4.15861 12.4923 4.36772V4.36772C12.7634 4.61113 12.7635 5.03593 12.4925 5.27943L6.79322 10.3997C6.41311 10.7412 5.8367 10.7412 5.4566 10.3997L2.50715 7.74988C2.23626 7.50652 2.23626 7.08197 2.50715 6.83861V6.83861C2.73997 6.62945 3.09302 6.62945 3.32584 6.83861L5.45656 8.75286Z"  />
<path fill-rule="evenodd" clip-rule="evenodd" d="M13 1H2C1.44772 1 1 1.44772 1 2V13C1 13.5523 1.44772 14 2 14H13C13.5523 14 14 13.5523 14 13V2C14 1.44772 13.5523 1 13 1ZM2 0C0.895431 0 0 0.89543 0 2V13C0 14.1046 0.89543 15 2 15H13C14.1046 15 15 14.1046 15 13V2C15 0.895431 14.1046 0 13 0H2Z" />
</svg>
