<svg id="Capa_1" enable-background="new 0 0 512 512" height="512" viewBox="0 0 512 512" width="512" xmlns="http://www.w3.org/2000/svg"><g><path d="m497 137h-26v-17c0-8.284-6.716-15-15-15s-15 6.716-15 15v17h-58v-57c0-8.284-6.716-15-15-15h-33v-50c0-8.284-6.716-15-15-15h-128c-8.284 0-15 6.716-15 15v50h-33c-8.284 0-15 6.716-15 15v161h-66v-17c0-8.284-6.716-15-15-15s-15 6.716-15 15v17h-18c-8.284 0-15 6.716-15 15v241c0 8.284 6.716 15 15 15h482c8.284 0 15-6.716 15-15v-345c0-8.284-6.716-15-15-15zm-290-107h98v35h-98zm-177 241h99v211h-99zm129-15v-161h33 128 33v57 330h-50v-51h1c8.284 0 15-6.716 15-15s-6.716-15-15-15h-16-64-16c-8.284 0-15 6.716-15 15s6.716 15 15 15h1v51h-50zm80 226v-51h34v51zm243 0h-99v-315h99z"/><path d="m208 159h16c8.284 0 15-6.716 15-15s-6.716-15-15-15h-16c-8.284 0-15 6.716-15 15s6.716 15 15 15z"/><path d="m88 297h-16c-8.284 0-15 6.716-15 15s6.716 15 15 15h16c8.284 0 15-6.716 15-15s-6.716-15-15-15z"/><path d="m88 353h-16c-8.284 0-15 6.716-15 15s6.716 15 15 15h16c8.284 0 15-6.716 15-15s-6.716-15-15-15z"/><path d="m88 409h-16c-8.284 0-15 6.716-15 15s6.716 15 15 15h16c8.284 0 15-6.716 15-15s-6.716-15-15-15z"/><path d="m440 193h-16c-8.284 0-15 6.716-15 15s6.716 15 15 15h16c8.284 0 15-6.716 15-15s-6.716-15-15-15z"/><path d="m440 249h-16c-8.284 0-15 6.716-15 15s6.716 15 15 15h16c8.284 0 15-6.716 15-15s-6.716-15-15-15z"/><path d="m440 305h-16c-8.284 0-15 6.716-15 15s6.716 15 15 15h16c8.284 0 15-6.716 15-15s-6.716-15-15-15z"/><path d="m440 361h-16c-8.284 0-15 6.716-15 15s6.716 15 15 15h16c8.284 0 15-6.716 15-15s-6.716-15-15-15z"/><path d="m288 159h16c8.284 0 15-6.716 15-15s-6.716-15-15-15h-16c-8.284 0-15 6.716-15 15s6.716 15 15 15z"/><path d="m208 223h16c8.284 0 15-6.716 15-15s-6.716-15-15-15h-16c-8.284 0-15 6.716-15 15s6.716 15 15 15z"/><path d="m288 223h16c8.284 0 15-6.716 15-15s-6.716-15-15-15h-16c-8.284 0-15 6.716-15 15s6.716 15 15 15z"/><path d="m208 287h16c8.284 0 15-6.716 15-15s-6.716-15-15-15h-16c-8.284 0-15 6.716-15 15s6.716 15 15 15z"/><path d="m288 287h16c8.284 0 15-6.716 15-15s-6.716-15-15-15h-16c-8.284 0-15 6.716-15 15s6.716 15 15 15z"/><path d="m208 351h16c8.284 0 15-6.716 15-15s-6.716-15-15-15h-16c-8.284 0-15 6.716-15 15s6.716 15 15 15z"/><path d="m288 351h16c8.284 0 15-6.716 15-15s-6.716-15-15-15h-16c-8.284 0-15 6.716-15 15s6.716 15 15 15z"/></g></svg>