<svg viewBox="0 0 25 17">
<path d="M16.9128 0.412842C15.2858 0.412842 13.7698 0.89624 12.5 1.72627C11.2302 0.896192 9.71416 0.412842 8.08716 0.412842C3.62788 0.412842 0 4.04072 0 8.5C0 12.9593 3.62788 16.5872 8.08716 16.5872C9.71416 16.5872 11.2302 16.1038 12.5 15.2737C13.7698 16.1038 15.2858 16.5872 16.9128 16.5872C21.3721 16.5872 25 12.9593 25 8.5C25 4.04072 21.3721 0.412842 16.9128 0.412842ZM8.08716 15.1223C4.4356 15.1223 1.46484 12.1516 1.46484 8.5C1.46484 4.84844 4.4356 1.87769 8.08716 1.87769C9.24502 1.87769 10.3342 2.17671 11.2821 2.70107C9.76812 4.17158 8.82568 6.22769 8.82568 8.5C8.82568 10.7723 9.76812 12.8284 11.2821 14.2989C10.3342 14.8233 9.24502 15.1223 8.08716 15.1223ZM13.5939 4.82568H11.4061C11.717 4.36133 12.085 3.93838 12.5 3.56675C12.915 3.93838 13.283 4.36133 13.5939 4.82568ZM12.5 13.4333C12.085 13.0617 11.717 12.6387 11.4061 12.1743H13.5939C13.283 12.6387 12.915 13.0616 12.5 13.4333ZM14.33 10.7095H10.67C10.503 10.2391 10.3878 9.74448 10.3313 9.23242H14.6688C14.6122 9.74448 14.4969 10.2391 14.33 10.7095ZM10.3313 7.76758C10.3878 7.25552 10.5031 6.76089 10.67 6.29053H14.33C14.4969 6.76089 14.6122 7.25552 14.6687 7.76758H10.3313ZM16.9128 15.1223C15.755 15.1223 14.6658 14.8233 13.7179 14.2989C15.2319 12.8284 16.1743 10.7723 16.1743 8.5C16.1743 6.22769 15.2319 4.17158 13.7179 2.70107C14.6658 2.17671 15.755 1.87769 16.9128 1.87769C20.5644 1.87769 23.5352 4.84844 23.5352 8.5C23.5352 12.1516 20.5644 15.1223 16.9128 15.1223Z" />
</svg>

