<svg viewBox="0 0 25 25" fill="none"  >
<path fill-rule="evenodd" clip-rule="evenodd" d="M23.6871 10.5606C24.8345 10.5606 25.4131 9.17725 24.6077 8.36003L17.5167 1.16937C16.7049 0.346221 15.3032 0.921022 15.3032 2.07709V4.95809C15.3032 5.19609 15.1102 5.38906 14.8722 5.38906H1.72777C0.775712 5.38906 0.00390625 6.16087 0.00390625 7.11292V8.83679C0.00390625 9.78884 0.775712 10.5606 1.72777 10.5606H23.6871ZM25 17.8872V16.1633C25 15.2113 24.2282 14.4395 23.2762 14.4395H1.31686C0.16941 14.4395 -0.409162 15.8229 0.396205 16.6401L7.48721 23.8307C8.29904 24.6539 9.70076 24.0791 9.70076 22.923V20.042C9.70076 19.804 9.89372 19.611 10.1317 19.611H23.2762C24.2282 19.611 25 18.8392 25 17.8872Z" />
</svg>
