<svg viewBox="0 0 23 23" >
<path d="M10.6866 17.5075C10.79 17.6109 10.9127 17.6929 11.0478 17.7488C11.1828 17.8048 11.3276 17.8336 11.4738 17.8336C11.62 17.8336 11.7648 17.8048 11.8999 17.7488C12.0349 17.6929 12.1577 17.6109 12.2611 17.5075L16.4595 13.3091C16.6682 13.1003 16.7855 12.8171 16.7855 12.5219C16.7855 12.2266 16.6682 11.9434 16.4595 11.7347C16.2507 11.5259 15.9675 11.4086 15.6723 11.4086C15.377 11.4086 15.0938 11.5259 14.8851 11.7347L12.5871 14.0326V1.87656C12.5871 1.5813 12.4698 1.29813 12.261 1.08935C12.0523 0.880567 11.7691 0.763275 11.4738 0.763275C11.1786 0.763275 10.8954 0.880567 10.6866 1.08935C10.4778 1.29813 10.3605 1.5813 10.3605 1.87656V14.0326L8.06259 11.7347C7.85381 11.5259 7.57064 11.4086 7.27538 11.4086C6.98013 11.4086 6.69696 11.5259 6.48818 11.7347C6.2794 11.9434 6.16211 12.2266 6.16211 12.5219C6.16211 12.8171 6.2794 13.1003 6.48818 13.3091L10.6866 17.5075Z" />
<path d="M21.123 10.4117C20.8278 10.4117 20.5446 10.529 20.3358 10.7378C20.1271 10.9466 20.0098 11.2297 20.0098 11.525V20.0602H2.93945V11.525C2.93945 11.2297 2.82216 10.9466 2.61338 10.7378C2.4046 10.529 2.12143 10.4117 1.82617 10.4117C1.53091 10.4117 1.24774 10.529 1.03896 10.7378C0.830182 10.9466 0.712891 11.2297 0.712891 11.525V20.4312C0.712891 20.9233 0.908377 21.3953 1.25634 21.7433C1.60431 22.0912 2.07626 22.2867 2.56836 22.2867H20.3809C20.873 22.2867 21.3449 22.0912 21.6929 21.7433C22.0408 21.3953 22.2363 20.9233 22.2363 20.4312V11.525C22.2363 11.2297 22.119 10.9466 21.9103 10.7378C21.7015 10.529 21.4183 10.4117 21.123 10.4117Z"  />
</svg>

