<svg viewBox="0 0 25 25" >
<path d="M12.5 0.78125C6.03125 0.78125 0.78125 6.03125 0.78125 12.5C0.78125 18.9687 6.03125 24.2188 12.5 24.2188C18.9687 24.2188 24.2188 18.9687 24.2188 12.5C24.2188 6.03125 18.9687 0.78125 12.5 0.78125ZM12.5 19.5312C11.6406 19.5312 10.9375 18.8281 10.9375 17.9688C10.9375 17.1094 11.6406 16.4062 12.5 16.4062C13.3594 16.4062 14.0625 17.1094 14.0625 17.9688C14.0625 18.8281 13.3594 19.5312 12.5 19.5312ZM14.2891 7.41406L13.7656 13.6797C13.7109 14.3359 13.1641 14.8438 12.5 14.8438C11.8359 14.8438 11.2891 14.3359 11.2344 13.6797L10.7109 7.41406C10.625 6.36719 11.4453 5.46875 12.5 5.46875C13.5 5.46875 14.2969 6.28125 14.2969 7.26563C14.2969 7.3125 14.2969 7.36719 14.2891 7.41406V7.41406Z"  />
</svg>

