<svg viewBox="0 0 24 22">
    <path fill-rule="evenodd" clip-rule="evenodd" d="M21.159 21.0957H2.84115C0.610561 21.0957 -0.749467 18.6306 0.441062 16.7435L9.59934 2.22863C10.7135 0.463185 13.2868 0.465153 14.3994 2.22854L23.5113 16.6699C24.7815 18.5486 23.4272 21.0957 21.159 21.0957ZM10.9372 3.0728L1.77901 17.5876C1.25228 18.4226 1.85364 19.5138 2.8412 19.5138H21.159C22.1677 19.5138 22.7634 18.3785 22.1967 17.55C22.1932 17.545 22.1898 17.5399 22.1865 17.5348L22.1806 17.5255L13.0616 3.07276C12.5684 2.29131 11.4296 2.29248 10.9372 3.0728ZM12 7.68457C11.5632 7.68457 11.209 8.03871 11.209 8.47554V13.0687C11.209 13.5055 11.5632 13.8596 12 13.8596C12.4369 13.8596 12.791 13.5055 12.791 13.0687V8.47554C12.791 8.03871 12.4369 7.68457 12 7.68457ZM12.7909 16.121C12.7909 16.5579 12.4368 16.912 12 16.912C11.5631 16.912 11.209 16.5579 11.209 16.121C11.209 15.6842 11.5631 15.3301 12 15.3301C12.4368 15.3301 12.7909 15.6842 12.7909 16.121Z" />
</svg>


