<svg id="Capa_1" enable-background="new 0 0 512 512" height="512" viewBox="0 0 512 512" width="512" xmlns="http://www.w3.org/2000/svg"><path d="m316 30h-137.58c-6.192-17.458-22.865-30-42.42-30-24.813 0-45 20.187-45 45v437h-45c-8.284 0-15 6.716-15 15s6.716 15 15 15h180c8.284 0 15-6.716 15-15s-6.716-15-15-15h-45v-242.01h62.58c-1.665 4.705-2.58 9.752-2.58 15.01 0 24.813 20.187 45 45 45h180c5.532 0 10.615-3.045 13.226-7.922 2.609-4.877 2.323-10.795-.745-15.398l-54.454-81.68 54.453-81.68c3.068-4.603 3.354-10.521.745-15.398-2.61-4.877-7.693-7.922-13.225-7.922h-135v-45c0-8.284-6.716-15-15-15zm-195 452v-437c0-8.271 6.729-15 15-15s15 6.729 15 15v437zm60-422h120v150h-120zm256.973 60-44.453 66.68c-3.359 5.038-3.359 11.603 0 16.641l44.453 66.679h-151.973c-8.271 0-15-6.729-15-15s6.729-15 15-15h30c8.284 0 15-6.716 15-15v-105z"/></svg>