<svg viewBox="0 0 20 20" >
<path d="M7.10191 19.3645V18.5297H8.19313C8.54488 18.5297 8.82879 18.2458 8.82879 17.894V17.0465C8.82879 16.6947 8.54488 16.4108 8.19313 16.4108H7.10191V15.0738C7.87318 14.934 8.60419 14.6416 9.2568 14.2093C8.48765 13.9084 7.77995 13.4613 7.16548 12.8766C6.79681 12.9931 6.40268 13.0545 5.99374 13.0482C3.97657 13.0228 2.33233 11.3806 2.30479 9.36347C2.27724 7.39292 3.78588 5.76139 5.70769 5.58976C6.02552 4.87358 6.47684 4.21461 7.04682 3.64252C7.07646 3.61285 7.10615 3.58531 7.13369 3.55776C6.77772 3.48996 6.41116 3.45605 6.04035 3.45605C4.47663 3.45605 3.00613 4.06417 1.90008 5.17022C0.81522 6.25932 0.209223 7.69803 0.188034 9.22998C0.166845 10.7979 0.77708 12.3151 1.87889 13.4296C2.73492 14.2941 3.8113 14.8598 4.98304 15.0738V16.4108H3.89182C3.54009 16.4108 3.25616 16.6947 3.25616 17.0465V17.894C3.25616 18.2458 3.54009 18.5297 3.89182 18.5297H4.98304V19.3645C4.98304 19.7163 5.26697 20.0002 5.6187 20.0002H6.46625C6.818 20.0002 7.10191 19.7163 7.10191 19.3645Z" />
<path d="M9.59279 6.19359C9.34274 6.44362 9.14568 6.73178 9.00586 7.04326C9.48896 7.67256 9.77711 8.46078 9.77711 9.31469C9.77711 9.64525 9.73261 9.9673 9.65211 10.2724C10.1818 10.7725 10.8705 11.0479 11.6036 11.0479C11.6142 11.0479 11.6269 11.0479 11.6375 11.0479C11.8091 10.4949 11.8981 9.91221 11.8981 9.31469C11.8981 7.92895 11.4193 6.61525 10.5399 5.56641C10.1903 5.70625 9.86824 5.91814 9.59279 6.19359Z" />
<path d="M15.4523 2.11887H16.1917L14.8208 3.48978C13.8801 2.84564 12.7698 2.49815 11.6065 2.49815C10.2738 2.49815 9.00877 2.95159 7.99172 3.78854C7.84763 3.9072 7.70567 4.03433 7.57218 4.16994C7.14417 4.59795 6.79244 5.08317 6.52334 5.60865C6.11652 6.40323 5.90039 7.2868 5.90039 8.20427C5.90039 9.72771 6.49367 11.1601 7.57218 12.2386C7.68236 12.3488 7.79466 12.4526 7.9112 12.5501C8.51508 13.0649 9.21219 13.4442 9.96015 13.6688C10.4877 13.8277 11.0408 13.9082 11.6065 13.9082C13.13 13.9082 14.5623 13.315 15.6408 12.2365C16.7172 11.1601 17.3126 9.72562 17.3126 8.20215C17.3126 7.03889 16.9651 5.92648 16.321 4.98782L17.6919 3.61691V4.3564C17.6919 4.70813 17.9758 4.99206 18.3275 4.99206H19.1751C19.5268 4.99206 19.8107 4.70813 19.8107 4.3564V1.05944V1.05732C19.8107 0.781863 19.6984 0.508529 19.5035 0.311474C19.3086 0.116538 19.0352 0 18.7598 0C18.7577 0 18.7555 0 18.7534 0H15.4522C15.1005 0 14.8166 0.283929 14.8166 0.635661V1.48321C14.8166 1.83494 15.1005 2.11887 15.4523 2.11887ZM14.1407 10.7384C13.4627 11.4165 12.5621 11.7894 11.6044 11.7894C11.5218 11.7894 11.4391 11.7873 11.3565 11.7809C10.6276 11.7322 9.9411 11.4631 9.37324 11.0097C9.2673 10.9249 9.16771 10.8359 9.07024 10.7385C7.91546 9.58367 7.71417 7.83349 8.46636 6.47105C8.62528 6.18289 8.82657 5.91167 9.07024 5.668C9.3457 5.39255 9.65929 5.16583 9.99831 4.99632C10.4899 4.74841 11.0387 4.61704 11.6044 4.61704C12.5621 4.61704 13.4627 4.98996 14.1407 5.668C15.5392 7.06643 15.5392 9.34208 14.1407 10.7384Z" />
</svg>

