<?xml version="1.0"?>
<svg xmlns="http://www.w3.org/2000/svg" viewBox="0 0 64 64" width="512" height="512"><g id="_15_Global_search" data-name="15 Global search"><path d="M43.1579,51.59a24.9168,24.9168,0,0,1-11.3231,4.23,45.8561,45.8561,0,0,0,6.176-6.9377,11.2893,11.2893,0,0,1-1.98.1974c-.2134,0-.42-.02-.6289-.0336A46.2655,46.2655,0,0,1,30,54.8008V47.3456a14.2788,14.2788,0,0,1-2-1.2748v8.6226a47.6525,47.6525,0,0,1-7.0876-9.0653,49.288,49.288,0,0,1,5.9323-.57,12.558,12.558,0,0,1-1.5937-1.9321,48.7274,48.7274,0,0,0-5.3759.6461A30.5983,30.5983,0,0,1,16.3115,32h7.5048a13.3248,13.3248,0,0,1,.8749-2H16.2345a25.5858,25.5858,0,0,1,3.0829-12.0014A55.4845,55.4845,0,0,0,28,18.9368V25.911a12.6146,12.6146,0,0,1,2-1.32V18.9568a49.9959,49.9959,0,0,0,8.1171-.74,34.3668,34.3668,0,0,1,2.3612,5.6234,13.0466,13.0466,0,0,1,2.41,1.15,34.7967,34.7967,0,0,0-2.705-7.1842A46.7731,46.7731,0,0,0,48.36,15.2029,24.877,24.877,0,0,1,53.9746,30H47.4939a13.4561,13.4561,0,0,1,.85,2H53.965a24.7967,24.7967,0,0,1-2.826,10.596l1.47,1.47A26.8981,26.8981,0,0,0,49.39,13.3318c-.0223-.0242-.04-.052-.0639-.0737A26.9429,26.9429,0,0,0,8.6935,13.235a.9894.9894,0,0,0-.13.15A26.9409,26.9409,0,0,0,8.583,48.6538c.0139.0161.0289.0308.0428.0469l.0082.009a26.93,26.93,0,0,0,35.9528,4.309Zm3.7958-37.9609A45.0473,45.0473,0,0,1,39.206,15.99a48.1479,48.1479,0,0,0-7.5231-9.8438A24.94,24.94,0,0,1,46.9537,13.6287ZM30,7.3086a47.6943,47.6943,0,0,1,7.0818,9.0662A48.0929,48.0929,0,0,1,30,16.9659Zm-2,9.6393a53.16,53.16,0,0,1-7.6381-.7806A41.7955,41.7955,0,0,1,28,7.1963ZM26.1794,6.1635A42.6666,42.6666,0,0,0,18.27,15.7543,49.5836,49.5836,0,0,1,11.0452,13.63,24.9414,24.9414,0,0,1,26.1794,6.1635ZM9.63,15.2166a49.6581,49.6581,0,0,0,7.651,2.3558A27.3881,27.3881,0,0,0,14.2375,30H4.0254A24.8763,24.8763,0,0,1,9.63,15.2166ZM4.0449,32h10.263a32.2156,32.2156,0,0,0,3.5306,12.1842A47.2773,47.2773,0,0,0,9.6555,46.79,24.8961,24.8961,0,0,1,4.0449,32Zm7.0007,16.3826a45.2849,45.2849,0,0,1,7.7726-2.3677,48.8178,48.8178,0,0,0,7.51,9.8413A24.9613,24.9613,0,0,1,11.0457,48.3826Z"/><path d="M60.8271,55.1128l-11.31-11.31a1.0124,1.0124,0,0,0-1.4161.002l-.9686-.9713-.0012.0015-1.4469-1.4509a7.94,7.94,0,0,0,.6976-1.4932,11.35,11.35,0,0,0-1.8027-10.7836,10.918,10.918,0,0,0-9.5249-4.0051,11.0981,11.0981,0,0,0-9.1061,15.1969,11.8893,11.8893,0,0,0,8.5029,6.61,10.1727,10.1727,0,0,0,6.92-1.35l2.4808,2.4877a1.0123,1.0123,0,0,0,.001,1.41l11.32,11.32a4.0016,4.0016,0,0,0,5.6543-5.6641ZM34.748,44.9312A8.9768,8.9768,0,1,1,41.7631,29.1a9.2973,9.2973,0,0,1,3.1394,8.65,8.2873,8.2873,0,0,1-1.624,3.581C41.0146,43.7468,38.1978,45.4448,34.748,44.9312Zm9.7191-1.9372,2.2168,2.2246c-.4746.4678-.9522.9345-1.4164,1.4127Q44.1589,45.52,43.05,44.41C43.3006,44.17,44.2537,43.2352,44.4671,42.994Zm14.4021,16.76a2.0616,2.0616,0,0,1-2.351-.46L45.9792,48.7551Q47.3947,47.34,48.81,45.9243l10.6,10.6A2.015,2.015,0,0,1,58.8692,59.7541Z"/></g></svg>
