<svg width="40" height="40" viewBox="0 0 40 40" fill="none" xmlns="http://www.w3.org/2000/svg">
<path d="M39.5748 20.45C39.5748 19.1333 39.4581 17.8833 39.2581 16.6666H20.4248V24.1833H31.2081C30.7248 26.65 29.3081 28.7333 27.2081 30.15V35.15H33.6415C37.4081 31.6666 39.5748 26.5333 39.5748 20.45Z" fill="#4285F4"/>
<path d="M20.4252 40C25.8252 40 30.3419 38.2 33.6419 35.15L27.2085 30.15C25.4085 31.35 23.1252 32.0833 20.4252 32.0833C15.2085 32.0833 10.7919 28.5666 9.20853 23.8167H2.5752V28.9667C5.85853 35.5 12.6085 40 20.4252 40Z" fill="#34A853"/>
<path d="M9.20814 23.8167C8.79147 22.6167 8.5748 21.3333 8.5748 20C8.5748 18.6667 8.80814 17.3833 9.20814 16.1833V11.0333H2.5748C1.20814 13.7333 0.424805 16.7667 0.424805 20C0.424805 23.2333 1.20814 26.2667 2.5748 28.9667L9.20814 23.8167Z" fill="#FBBC05"/>
<path d="M20.4252 7.91667C23.3752 7.91667 26.0085 8.93334 28.0919 10.9167L33.7919 5.21667C30.3419 1.98333 25.8252 0 20.4252 0C12.6085 0 5.85853 4.5 2.5752 11.0333L9.20853 16.1833C10.7919 11.4333 15.2085 7.91667 20.4252 7.91667Z" fill="#EA4335"/>
</svg>
