<svg width="36" height="34" viewBox="0 0 36 34" fill="none" xmlns="http://www.w3.org/2000/svg">
<path d="M12.4041 5.01912C12.7401 4.12632 13.2105 3.31032 13.9017 2.64792C16.6665 -0.0496837 21.2361 0.631917 23.1177 4.02072C24.5289 6.59352 26.0265 9.09912 27.4761 11.6431C29.9049 15.8671 32.3625 20.0815 34.7625 24.3151C36.7785 27.8575 34.5897 32.3311 30.5865 32.9359C28.1289 33.3007 25.8345 32.1775 24.5577 29.9695C22.4265 26.2543 20.2857 22.5487 18.1545 18.8527C18.1161 18.7663 18.0585 18.6991 18.0009 18.6223C17.7705 18.4399 17.6745 18.1711 17.5305 17.9311C16.5897 16.2703 15.6105 14.6191 14.6697 12.9679C14.0649 11.8927 13.4313 10.8367 12.8169 9.76152C12.2697 8.80152 12.0105 7.75512 12.0393 6.66072C12.0777 6.09432 12.1545 5.52792 12.4041 5.01912Z" fill="#3C8BD9"/>
<path d="M12.4026 5.01953C12.2778 5.52833 12.1626 6.03713 12.1338 6.57473C12.0954 7.75553 12.3834 8.85953 12.9786 9.88673C14.5338 12.5555 16.0794 15.2339 17.625 17.9123C17.769 18.1523 17.8746 18.3923 18.0186 18.6131C17.1738 20.0819 16.329 21.5315 15.465 23.0003C14.2842 25.0451 13.0938 27.1091 11.8938 29.1539C11.8362 29.1539 11.8266 29.1251 11.8074 29.0867C11.7978 28.9715 11.8362 28.8755 11.865 28.7603C12.441 26.6483 11.961 24.7667 10.5114 23.1539C9.61862 22.1843 8.49542 21.6275 7.19942 21.4451C5.50982 21.2051 4.01222 21.6467 2.66822 22.7027C2.42822 22.8851 2.27463 23.1539 1.98663 23.2979C1.92902 23.2979 1.90023 23.2691 1.89062 23.2307C2.57222 22.0595 3.23462 20.8883 3.90663 19.7171C6.70022 14.8595 9.49382 10.0115 12.3066 5.16353C12.3354 5.12513 12.3738 5.07713 12.4026 5.01953Z" fill="#FABC04"/>
<path d="M1.94916 23.2876C2.21796 23.0476 2.46756 22.798 2.75556 22.5676C6.18277 19.8604 11.338 21.8188 12.0868 26.11C12.2692 27.1372 12.1732 28.126 11.8564 29.1148C11.8468 29.2012 11.8276 29.2684 11.7988 29.3548C11.674 29.5852 11.5588 29.8252 11.4148 30.046C10.1572 32.1196 8.31396 33.1468 5.88516 32.9932C3.10116 32.7916 0.921964 30.7084 0.537964 27.9436C0.355564 26.5996 0.624365 25.3516 1.31556 24.19C1.45956 23.9404 1.62276 23.71 1.78596 23.4604C1.85316 23.3932 1.82436 23.2876 1.94916 23.2876Z" fill="#34A852"/>
<path d="M1.94975 23.2881C1.89215 23.3457 1.89215 23.4417 1.79615 23.4609C1.78655 23.3649 1.83455 23.3073 1.89215 23.2305L1.94975 23.2881Z" fill="#FABC04"/>
<path d="M11.7992 29.3552C11.7416 29.2592 11.7992 29.1824 11.8568 29.1152C11.8664 29.1248 11.8953 29.1536 11.9145 29.1728L11.7992 29.3552Z" fill="#E1C025"/>
</svg>
