<svg  viewBox="0 0 20 17"  >
<path fill-rule="evenodd" clip-rule="evenodd" d="M0 1C0 0.447715 0.447715 0 1 0H18.6364C19.1886 0 19.6364 0.447715 19.6364 1V3.53147C19.6364 4.08375 19.1886 4.53147 18.6364 4.53147H1C0.447716 4.53147 0 4.08375 0 3.53147V1ZM0 7.04199C0 6.48971 0.447715 6.04199 1 6.04199H11.8392C12.3914 6.04199 12.8392 6.48971 12.8392 7.04199V15.6154C12.8392 16.1677 12.3914 16.6154 11.8392 16.6154H0.999999C0.447714 16.6154 0 16.1677 0 15.6154V7.04199ZM15.3496 6.04199C14.7973 6.04199 14.3496 6.48971 14.3496 7.04199V15.6154C14.3496 16.1677 14.7973 16.6154 15.3496 16.6154H18.6363C19.1886 16.6154 19.6363 16.1677 19.6363 15.6154V7.04199C19.6363 6.48971 19.1886 6.04199 18.6363 6.04199H15.3496Z" />
</svg>
