<svg  viewBox="0 0 14 13">
<path d="M13.6701 7.18003C13.5753 7.14497 13.4724 7.14412 13.3771 7.17761C13.2819 7.21109 13.1993 7.27708 13.142 7.36558L12.5375 8.28746L8.88773 2.75913C8.8164 2.65102 8.70808 2.57781 8.58659 2.5556C8.4651 2.5334 8.34039 2.56402 8.23988 2.64072L5.01932 5.1019L1.79003 0.21006C1.71846 0.102185 1.61011 0.0291929 1.48866 0.00704858C1.3672 -0.0150957 1.24254 0.0154106 1.14194 0.0918947L0.194893 0.815772C0.094847 0.892941 0.0271686 1.00949 0.00657971 1.14007C-0.0140091 1.27065 0.0141572 1.40469 0.0849518 1.51304L4.25607 7.8314C4.32747 7.93948 4.43582 8.01263 4.55733 8.03479C4.67883 8.05695 4.80354 8.02629 4.90405 7.94956L8.12459 5.48862L10.8324 9.59043L9.82423 9.90073C9.72799 9.93035 9.6432 9.99261 9.58249 10.0782C9.52177 10.1639 9.48837 10.2683 9.48725 10.376C9.48612 10.4837 9.51734 10.5889 9.57626 10.6759C9.63517 10.763 9.71864 10.8273 9.81424 10.8592L13.2593 12.0106C13.3276 12.0335 13.3999 12.0391 13.4705 12.0271C13.5411 12.015 13.6082 11.9855 13.6665 11.941C13.7248 11.8964 13.7727 11.838 13.8066 11.7703C13.8405 11.7025 13.8594 11.6273 13.8618 11.5504L13.9862 7.671C13.9901 7.56334 13.9614 7.45721 13.9044 7.36864C13.8474 7.28007 13.7651 7.21387 13.6701 7.18003Z" />
</svg>
