<svg viewBox="0 0 14 13" >
<path d="M13.6701 4.85317C13.5753 4.88823 13.4724 4.88908 13.3771 4.8556C13.2819 4.82212 13.1993 4.75612 13.142 4.66762L12.5375 3.74574L8.88773 9.27407C8.8164 9.38218 8.70808 9.45539 8.58659 9.4776C8.4651 9.4998 8.34039 9.46919 8.23988 9.39248L5.01932 6.9313L1.79003 11.8231C1.71846 11.931 1.61011 12.004 1.48866 12.0262C1.3672 12.0483 1.24254 12.0178 1.14194 11.9413L0.194893 11.2174C0.094847 11.1403 0.0271685 11.0237 0.00657971 10.8931C-0.0140091 10.7626 0.0141572 10.6285 0.0849518 10.5202L4.25607 4.2018C4.32746 4.09373 4.43582 4.02057 4.55733 3.99841C4.67883 3.97626 4.80354 4.00691 4.90404 4.08364L8.12459 6.54458L10.8324 2.44277L9.82423 2.13247C9.72799 2.10285 9.6432 2.0406 9.58249 1.95497C9.52177 1.86934 9.48837 1.76492 9.48724 1.65723C9.48612 1.54953 9.51734 1.44433 9.57626 1.35726C9.63517 1.27019 9.71864 1.2059 9.81424 1.17397L13.2593 0.022604C13.3276 -0.000291482 13.3999 -0.00592169 13.4705 0.00615311C13.5411 0.0182279 13.6082 0.0476823 13.6665 0.0922194C13.7248 0.136756 13.7727 0.195175 13.8066 0.262923C13.8405 0.330672 13.8594 0.405922 13.8618 0.48281L13.9862 4.3622C13.9901 4.46986 13.9614 4.57599 13.9044 4.66456C13.8474 4.75313 13.7651 4.81934 13.6701 4.85317Z" />
</svg>
