<svg width="20" height="20" viewBox="0 0 20 20" fill="none" xmlns="http://www.w3.org/2000/svg">
<g clip-path="url(#clip0_4127_12743)">
<path d="M18.334 5.33351H16.829L17.929 2.09618C17.9854 1.9304 18.0085 1.75515 17.9972 1.58042C17.9858 1.40569 17.9402 1.23491 17.8628 1.07782C17.7855 0.920738 17.678 0.780426 17.5464 0.664898C17.4148 0.549371 17.2618 0.460891 17.096 0.40451C16.7612 0.290644 16.3949 0.314437 16.0776 0.470654C15.9205 0.548006 15.7802 0.65554 15.6647 0.787117C15.5492 0.918694 15.4607 1.07174 15.4043 1.23751L14.0123 5.33351H9.16232L10.2623 2.09618C10.3762 1.76139 10.3524 1.39507 10.1962 1.07782C10.04 0.760574 9.76411 0.518376 9.42932 0.40451C9.09453 0.290644 8.72821 0.314437 8.41096 0.470654C8.09372 0.626872 7.85152 0.902718 7.73765 1.23751L6.34565 5.33351H2.33398C1.98036 5.33351 1.64122 5.47399 1.39118 5.72403C1.14113 5.97408 1.00065 6.31322 1.00065 6.66684C1.00065 7.02047 1.14113 7.3596 1.39118 7.60965C1.64122 7.8597 1.98036 8.00018 2.33398 8.00018H5.43898L4.19232 11.6668H1.66732C1.3137 11.6668 0.974557 11.8073 0.724509 12.0574C0.47446 12.3074 0.333984 12.6466 0.333984 13.0002C0.333984 13.3538 0.47446 13.6929 0.724509 13.943C0.974557 14.193 1.3137 14.3335 1.66732 14.3335H3.28565L2.07165 17.9042C2.01527 18.0699 1.99209 18.2452 2.00344 18.4199C2.01479 18.5947 2.06044 18.7654 2.1378 18.9225C2.21515 19.0796 2.32268 19.2199 2.45426 19.3355C2.58584 19.451 2.73888 19.5395 2.90465 19.5958C3.07042 19.6522 3.24568 19.6754 3.42041 19.6641C3.59514 19.6527 3.76592 19.6071 3.923 19.5297C4.08009 19.4523 4.2204 19.3448 4.33593 19.2132C4.45146 19.0817 4.53994 18.9286 4.59632 18.7628L6.10232 14.3335H10.9523L9.73832 17.9042C9.68194 18.0699 9.65876 18.2452 9.67011 18.4199C9.68146 18.5947 9.72711 18.7654 9.80446 18.9225C9.96068 19.2398 10.2365 19.482 10.5713 19.5958C10.9061 19.7097 11.2724 19.6859 11.5897 19.5297C11.9069 19.3735 12.1491 19.0976 12.263 18.7628L13.769 14.3335H17.6673C18.0209 14.3335 18.3601 14.193 18.6101 13.943C18.8602 13.6929 19.0007 13.3538 19.0007 13.0002C19.0007 12.6466 18.8602 12.3074 18.6101 12.0574C18.3601 11.8073 18.0209 11.6668 17.6673 11.6668H14.6757L15.9223 8.00018H18.334C18.6876 8.00018 19.0267 7.8597 19.2768 7.60965C19.5268 7.3596 19.6673 7.02047 19.6673 6.66684C19.6673 6.31322 19.5268 5.97408 19.2768 5.72403C19.0267 5.47399 18.6876 5.33351 18.334 5.33351V5.33351ZM11.859 11.6668H7.00898L8.25565 8.00018H13.1057L11.859 11.6668Z" fill="url(#paint0_linear_4127_12743)"/>
<path d="M225.333 -103.466H186.805L214.965 -186.342C216.409 -190.586 217.002 -195.072 216.711 -199.546C216.421 -204.019 215.252 -208.391 213.272 -212.412C211.292 -216.433 208.539 -220.025 205.17 -222.983C201.802 -225.94 197.884 -228.205 193.64 -229.649C185.07 -232.564 175.692 -231.955 167.571 -227.956C163.549 -225.975 159.957 -223.222 157 -219.854C154.042 -216.486 151.777 -212.568 150.334 -208.324L114.699 -103.466H-9.46145L18.6985 -186.342C21.6135 -194.913 21.0044 -204.29 17.0053 -212.412C13.0061 -220.534 5.94441 -226.734 -2.62626 -229.649C-11.1969 -232.564 -20.5745 -231.955 -28.6961 -227.956C-36.8177 -223.956 -43.0179 -216.895 -45.9329 -208.324L-81.5681 -103.466H-184.267C-193.32 -103.466 -202.001 -99.8702 -208.403 -93.469C-214.804 -87.0678 -218.4 -78.3858 -218.4 -69.3331C-218.4 -60.2804 -214.804 -51.5984 -208.403 -45.1972C-202.001 -38.7959 -193.32 -35.1998 -184.267 -35.1998H-104.779L-136.693 58.6669H-201.333C-210.386 58.6669 -219.068 62.2631 -225.469 68.6643C-231.871 75.0656 -235.467 83.7475 -235.467 92.8002C-235.467 101.853 -231.871 110.535 -225.469 116.936C-219.068 123.337 -210.386 126.934 -201.333 126.934H-159.904L-190.983 218.343C-192.426 222.586 -193.019 227.073 -192.729 231.546C-192.438 236.019 -191.269 240.391 -189.289 244.412C-187.309 248.434 -184.556 252.026 -181.188 254.983C-177.819 257.941 -173.901 260.206 -169.658 261.649C-165.414 263.093 -160.927 263.686 -156.454 263.395C-151.981 263.105 -147.609 261.936 -143.588 259.956C-139.566 257.976 -135.974 255.223 -133.017 251.855C-130.059 248.486 -127.794 244.568 -126.351 240.325L-87.7975 126.934H36.3625L5.28414 218.343C3.84079 222.586 3.24745 227.073 3.53798 231.546C3.82852 236.019 4.99725 240.391 6.97744 244.412C10.9766 252.534 18.0383 258.734 26.6089 261.649C35.1796 264.564 44.5572 263.955 52.6788 259.956C60.8004 255.957 67.0006 248.895 69.9156 240.325L108.469 126.934H208.267C217.319 126.934 226.001 123.337 232.402 116.936C238.804 110.535 242.4 101.853 242.4 92.8002C242.4 83.7475 238.804 75.0656 232.402 68.6643C226.001 62.2631 217.319 58.6669 208.267 58.6669H131.68L163.595 -35.1998H225.333C234.386 -35.1998 243.068 -38.7959 249.469 -45.1972C255.87 -51.5984 259.467 -60.2804 259.467 -69.3331C259.467 -78.3858 255.87 -87.0678 249.469 -93.469C243.068 -99.8702 234.386 -103.466 225.333 -103.466V-103.466ZM59.5732 58.6669H-64.5868L-32.6721 -35.1998H91.4879L59.5732 58.6669Z" fill="black"/>
</g>
<defs>
<linearGradient id="paint0_linear_4127_12743" x1="0.333984" y1="0.333496" x2="23.1596" y2="6.29452" gradientUnits="userSpaceOnUse">
<stop stop-color="#007DF2"/>
<stop offset="1" stop-color="#46A6FF"/>
</linearGradient>
<clipPath id="clip0_4127_12743">
<rect width="20" height="20" fill="white"/>
</clipPath>
</defs>
</svg>
