<?xml version="1.0" encoding="iso-8859-1"?>
<!-- Generator: Adobe Illustrator 19.0.0, SVG Export Plug-In . SVG Version: 6.00 Build 0)  -->
<svg version="1.1" id="Capa_1" xmlns="http://www.w3.org/2000/svg" xmlns:xlink="http://www.w3.org/1999/xlink" x="0px" y="0px"
	 viewBox="0 0 409.6 409.6" style="enable-background:new 0 0 409.6 409.6;" xml:space="preserve">
<g>
	<g>
		<path d="M0,100.265V409.6h119.465V77.865L0,100.265z M85.335,375.465h-51.2v-34.13h51.2V375.465z M85.335,307.2h-51.2v-34.135
			h51.2V307.2z M85.335,238.935h-51.2V204.8h51.2V238.935z M85.335,170.665h-51.2v-34.13h51.2V170.665z"/>
	</g>
</g>
<g>
	<g>
		<path d="M153.6,0v409.6h256V48L153.6,0z M256,375.465h-51.2v-34.13H256V375.465z M256,307.2h-51.2v-34.135H256V307.2z
			 M256,238.935h-51.2V204.8H256V238.935z M256,170.665h-51.2v-34.13H256V170.665z M256,102.4h-51.2V68.265H256V102.4z
			 M358.4,375.465h-51.2v-34.13h51.2V375.465z M358.4,307.2h-51.2v-34.135h51.2V307.2z M358.4,238.935h-51.2V204.8h51.2V238.935z
			 M358.4,170.665h-51.2v-34.13h51.2V170.665z"/>
	</g>
</g>
<g>
</g>
<g>
</g>
<g>
</g>
<g>
</g>
<g>
</g>
<g>
</g>
<g>
</g>
<g>
</g>
<g>
</g>
<g>
</g>
<g>
</g>
<g>
</g>
<g>
</g>
<g>
</g>
<g>
</g>
</svg>
