<svg viewBox="0 0 20 20" fill="currentColor" >
<path d="M11.3366 14.0908C11.1322 14.1098 10.9269 14.0637 10.7503 13.959C10.6212 13.8265 10.5593 13.6425 10.5821 13.459C10.5869 13.3061 10.6051 13.154 10.6366 13.0044C10.6671 12.8328 10.7066 12.6629 10.7548 12.4953L11.2912 10.6499C11.3465 10.4677 11.383 10.2804 11.4003 10.0907C11.4003 9.88622 11.4275 9.74528 11.4275 9.66348C11.4389 9.29891 11.2833 8.94907 11.0048 8.71348C10.6623 8.45051 10.2357 8.32126 9.80481 8.34985C9.49602 8.3545 9.18961 8.40505 8.8957 8.49985C8.57449 8.59985 8.2366 8.71954 7.88207 8.85895L7.72754 9.45895C7.83207 9.42258 7.95938 9.38169 8.1048 9.33622C8.24355 9.29512 8.38738 9.27368 8.53207 9.27258C8.73504 9.25059 8.93934 9.30044 9.10934 9.41348C9.2248 9.55126 9.27898 9.73024 9.25934 9.90895C9.25883 10.0618 9.24207 10.2142 9.20934 10.3635C9.1775 10.5226 9.1366 10.6907 9.0866 10.868L8.5457 12.7225C8.50211 12.8949 8.46723 13.0694 8.44117 13.2453C8.41992 13.3959 8.4093 13.5477 8.40934 13.6998C8.40711 14.0669 8.57496 14.4143 8.86387 14.6407C9.21168 14.9078 9.64434 15.0402 10.082 15.0134C10.3902 15.0198 10.6974 14.9752 10.9911 14.8816C11.2487 14.7937 11.5927 14.668 12.023 14.5043L12.1684 13.9316C12.0519 13.98 11.9318 14.0195 11.8093 14.0498C11.6544 14.0852 11.4954 14.0989 11.3366 14.0908Z"/>
<path d="M11.9041 5.34083C11.6568 5.11364 11.3308 4.99141 10.995 4.99993C10.6594 4.99235 10.3338 5.11446 10.0859 5.34083C9.63156 5.73262 9.58081 6.4186 9.97265 6.87301C10.0076 6.91352 10.0454 6.95137 10.0859 6.9863C10.6036 7.4493 11.3865 7.4493 11.9041 6.9863C12.3585 6.59063 12.4061 5.90157 12.0104 5.44719C11.9775 5.40934 11.942 5.3738 11.9041 5.34083Z"/>
<path d="M10 0C4.47715 0 0 4.47715 0 10C0 15.5229 4.47715 20 10 20C15.5229 20 20 15.5229 20 10C20 4.47715 15.5229 0 10 0ZM10 19.0909C4.97922 19.0909 0.909102 15.0208 0.909102 10C0.909102 4.97922 4.97922 0.909102 10 0.909102C15.0208 0.909102 19.0909 4.97922 19.0909 10C19.0909 15.0208 15.0208 19.0909 10 19.0909Z"/>
</svg>