<svg  viewBox="0 0 5 11" fill="currentColor">
<path d="M3.6091 9.09152C3.40465 9.11058 3.19938 9.06445 3.02274 8.95968C2.89367 8.82718 2.8318 8.64324 2.85457 8.45968C2.85934 8.30687 2.87758 8.15476 2.9091 8.00515C2.93961 7.83351 2.97902 7.66359 3.02727 7.49605L3.56363 5.65058C3.61895 5.46843 3.65551 5.28109 3.67273 5.09148C3.67273 4.88695 3.7 4.74601 3.7 4.66422C3.71141 4.29964 3.55574 3.9498 3.27727 3.71421C2.93473 3.45125 2.50816 3.32199 2.07727 3.35058C1.76848 3.35523 1.46207 3.40578 1.16816 3.50058C0.846954 3.60058 0.509063 3.72027 0.154532 3.85968L0 4.45968C0.104531 4.42332 0.231836 4.38242 0.377266 4.33695C0.516016 4.29586 0.659844 4.27441 0.804532 4.27332C1.0075 4.25132 1.2118 4.30117 1.3818 4.41422C1.49727 4.55199 1.55145 4.73097 1.5318 4.90968C1.53129 5.06254 1.51453 5.21492 1.4818 5.36422C1.44996 5.52332 1.40906 5.69148 1.35906 5.86875L0.818164 7.72328C0.774571 7.89566 0.739688 8.07011 0.713633 8.24601C0.692383 8.3966 0.681758 8.54847 0.681797 8.70054C0.679571 9.06761 0.847422 9.41504 1.13633 9.64144C1.48414 9.90851 1.9168 10.0409 2.35449 10.0142C2.6627 10.0205 2.96984 9.97597 3.26359 9.88234C3.52117 9.79445 3.86512 9.66871 4.29543 9.50507L4.4409 8.93234C4.32434 8.9807 4.2043 9.02019 4.0818 9.0505C3.92688 9.0859 3.76781 9.09964 3.6091 9.09152Z"  />
<path d="M4.17708 0.341315C3.9297 0.114128 3.60376 -0.00809874 3.26798 0.00041688C2.9324 -0.00716124 2.60677 0.114948 2.35888 0.341315C1.9045 0.733112 1.85376 1.41909 2.2456 1.8735C2.28052 1.91401 2.31837 1.95186 2.35888 1.98678C2.87654 2.44979 3.65943 2.44979 4.17704 1.98678C4.63142 1.59112 4.67903 0.902057 4.28337 0.447682C4.25048 0.409831 4.21493 0.374284 4.17708 0.341315Z" />
</svg>
