<svg viewBox="0 0 20 20" fill="none"  fill="currentColor">
<path d="M3.7539 0.90625C3.12109 1.15234 2.58594 1.48047 2.05078 2.01563C1.51562 2.54688 1.1875 3.08594 0.941406 3.71485C0.703125 4.32422 0.542969 5.02344 0.496094 6.04688C0.449219 7.07032 0.4375 7.39844 0.4375 10.0078C0.4375 12.6172 0.449219 12.9453 0.496094 13.9688C0.542969 14.9922 0.707031 15.6914 0.941406 16.3008C1.1875 16.9336 1.51562 17.4688 2.05078 18.0039C2.58594 18.5391 3.12109 18.8672 3.7539 19.1133C4.36328 19.3516 5.0625 19.5117 6.08593 19.5586C7.10937 19.6055 7.4375 19.6172 10.0469 19.6172C12.6562 19.6172 12.9844 19.6055 14.0078 19.5586C15.0312 19.5117 15.7305 19.3477 16.3398 19.1133C16.9726 18.8672 17.5078 18.5391 18.043 18.0039C18.5781 17.4688 18.9062 16.9336 19.1523 16.3008C19.3906 15.6914 19.5508 14.9922 19.5976 13.9688C19.6445 12.9453 19.6562 12.6172 19.6562 10.0078C19.6562 7.39844 19.6445 7.07032 19.5976 6.04688C19.5508 5.02344 19.3867 4.32422 19.1523 3.71485C18.9062 3.08594 18.5781 2.54688 18.0469 2.01563C17.5117 1.48047 16.9766 1.15234 16.3437 0.90625C15.7344 0.667969 15.0351 0.507813 14.0117 0.460938C12.9883 0.414063 12.6601 0.402344 10.0508 0.402344C7.4414 0.402344 7.11328 0.414063 6.08984 0.460938C5.0625 0.503906 4.36328 0.667969 3.7539 0.90625ZM13.9297 2.1875C14.8672 2.23047 15.375 2.38672 15.7148 2.51953C16.1641 2.69531 16.4844 2.90235 16.8203 3.23828C17.1562 3.57422 17.3633 3.89453 17.5391 4.34375C17.6719 4.6836 17.8281 5.19141 17.8711 6.12891C17.918 7.14063 17.9258 7.44532 17.9258 10.0117C17.9258 12.5781 17.9141 12.8828 17.8711 13.8945C17.8281 14.832 17.6719 15.3399 17.5391 15.6797C17.3633 16.1289 17.1562 16.4492 16.8203 16.7852C16.4844 17.1211 16.1641 17.3281 15.7148 17.5039C15.375 17.6367 14.8672 17.793 13.9297 17.8359C12.918 17.8828 12.6133 17.8906 10.0469 17.8906C7.48047 17.8906 7.17578 17.8789 6.16406 17.8359C5.22656 17.793 4.71875 17.6367 4.3789 17.5039C3.92969 17.3281 3.60937 17.1211 3.27344 16.7852C2.9375 16.4492 2.73047 16.1289 2.55469 15.6797C2.42187 15.3399 2.26562 14.832 2.22266 13.8945C2.17578 12.8828 2.16797 12.5781 2.16797 10.0117C2.16797 7.44532 2.17969 7.14063 2.22266 6.12891C2.26562 5.19141 2.42187 4.6836 2.55469 4.34375C2.73047 3.89453 2.9375 3.57422 3.27344 3.23828C3.60937 2.90235 3.92969 2.69531 4.3789 2.51953C4.71875 2.38672 5.22656 2.23047 6.16406 2.1875C7.17578 2.14063 7.48047 2.13281 10.0469 2.13281C12.6133 2.13281 12.918 2.14063 13.9297 2.1875Z" />
<path d="M5.11328 10.0117C5.11328 12.7383 7.32422 14.9453 10.0469 14.9453C12.7695 14.9453 14.9805 12.7344 14.9805 10.0117C14.9805 7.28906 12.7734 5.07812 10.0469 5.07812C7.32031 5.07812 5.11328 7.28516 5.11328 10.0117ZM13.25 10.0117C13.25 11.7812 11.8164 13.2148 10.0469 13.2148C8.27734 13.2148 6.84375 11.7812 6.84375 10.0117C6.84375 8.24219 8.27734 6.80859 10.0469 6.80859C11.8164 6.80859 13.25 8.24219 13.25 10.0117Z" />
<path d="M15.1797 6.03516C15.8161 6.03516 16.332 5.51923 16.332 4.88281C16.332 4.24639 15.8161 3.73047 15.1797 3.73047C14.5433 3.73047 14.0273 4.24639 14.0273 4.88281C14.0273 5.51923 14.5433 6.03516 15.1797 6.03516Z" />
</svg>


