<svg viewBox="0 0 16 16" >
<path d="M15.7188 7.34694C15.6703 7.28654 15.5907 7.26119 15.5175 7.28347L14.4791 7.58323C14.1395 4.26592 11.4951 1.6205 8.17781 1.28097L8.47812 0.242983C8.49885 0.169361 8.47408 0.0902745 8.41365 0.0418396C8.35377 -0.00627197 8.27074 -0.0134822 8.20303 0.0232804L4.95851 1.79397C4.89708 1.82756 4.85938 1.89145 4.85938 1.96116C4.85938 2.03136 4.89708 2.09525 4.95851 2.1289L8.20261 3.89907C8.27074 3.93626 8.35377 3.92843 8.41365 3.8799C8.47408 3.83237 8.49885 3.75247 8.47712 3.67876L8.25059 2.89426C10.6322 3.24362 12.516 5.12834 12.8659 7.51006L12.0814 7.28347C12.0082 7.26174 11.9287 7.28702 11.8802 7.34694C11.8323 7.40675 11.8245 7.4904 11.8617 7.55798L13.6317 10.8027C13.6653 10.8635 13.7299 10.9017 13.7996 10.9012C13.8691 10.9018 13.9332 10.8635 13.9672 10.8027L15.7378 7.55749C15.7741 7.49037 15.7668 7.40672 15.7188 7.34694Z"  />
<path d="M8.26117 7.67348V5.14009C8.26117 4.92119 8.08363 4.74365 7.86438 4.74365H0.635105C0.415854 4.74365 0.238281 4.92119 0.238281 5.14009V12.3699C0.238281 12.5891 0.415854 12.7667 0.635105 12.7667H3.16807V9.45926C3.16807 8.4744 3.96896 7.67351 4.95376 7.67351H8.26117V7.67348Z" />
<path d="M10.5545 8.51855H4.95456C4.43584 8.51855 4.01367 8.94008 4.01367 9.45948V15.0593C4.01367 15.5785 4.43584 16.0002 4.95456 16.0002H10.5545C11.0731 16.0002 11.4952 15.5785 11.4952 15.0593V9.45948C11.4952 8.94008 11.0731 8.51855 10.5545 8.51855ZM10.2283 14.7332H5.28064V9.78559H10.2283V14.7332Z" />
</svg>

