<svg width="37" height="27" viewBox="0 0 37 27" fill="none" xmlns="http://www.w3.org/2000/svg">
<path d="M21.0863 13.6984C21.0334 13.6456 21.0037 13.574 21.0037 13.4993C21.0037 13.4245 21.0334 13.3529 21.0863 13.3001L31.5064 2.88126C32.1652 2.22147 32.1644 1.1525 31.5047 0.493648C30.8449 -0.165208 29.7759 -0.164452 29.117 0.495335L18.6982 10.9097C18.6454 10.9626 18.5738 10.9923 18.4991 10.9923C18.4243 10.9923 18.3527 10.9626 18.2999 10.9097L7.88107 0.495335C7.22221 -0.163831 6.15374 -0.164083 5.49458 0.494773C4.83541 1.15363 4.83516 2.2221 5.49402 2.88126L15.9118 13.3001C15.9647 13.3529 15.9944 13.4245 15.9944 13.4993C15.9944 13.574 15.9647 13.6456 15.9118 13.6984L5.49402 24.1184C5.06781 24.5448 4.90147 25.1662 5.05764 25.7485C5.21382 26.3308 5.66879 26.7855 6.25117 26.9414C6.83355 27.0973 7.45486 26.9307 7.88107 26.5043L18.2999 16.0843C18.3527 16.0314 18.4243 16.0017 18.4991 16.0017C18.5738 16.0017 18.6454 16.0314 18.6982 16.0843L29.117 26.5043C29.7759 27.1635 30.8444 27.1637 31.5035 26.5049C32.1627 25.846 32.163 24.7775 31.5041 24.1184L21.0863 13.6984Z" fill="#E14343"/>
</svg>
