<svg viewBox="0 0 13 11" fill="currentColor" >
<path d="M12.0028 6.15454C11.9209 6.12563 11.8321 6.12493 11.7497 6.15254C11.6674 6.18016 11.5961 6.23458 11.5466 6.30756L11.0243 7.0678L7.8708 2.50877C7.80917 2.41961 7.71558 2.35924 7.61061 2.34093C7.50564 2.32261 7.39789 2.34786 7.31104 2.41112L4.52843 4.44078L1.73826 0.406628C1.67643 0.317668 1.58281 0.257473 1.47787 0.239211C1.37294 0.220949 1.26523 0.246107 1.17831 0.309181L0.360041 0.90614C0.2736 0.969779 0.215124 1.06589 0.197335 1.17358C0.179546 1.28126 0.203882 1.3918 0.26505 1.48115L3.86897 6.69171C3.93065 6.78083 4.02427 6.84116 4.12926 6.85944C4.23424 6.87771 4.34199 6.85243 4.42883 6.78915L7.21144 4.75969L9.55105 8.14233L8.67995 8.39822C8.59679 8.42265 8.52354 8.47399 8.47108 8.5446C8.41862 8.61522 8.38976 8.70133 8.38879 8.79014C8.38782 8.87895 8.41479 8.96571 8.4657 9.03751C8.5166 9.10932 8.58872 9.16233 8.67132 9.18867L11.6479 10.1382C11.7069 10.157 11.7693 10.1617 11.8304 10.1517C11.8914 10.1418 11.9493 10.1175 11.9997 10.0808C12.0501 10.044 12.0915 9.99585 12.1208 9.93998C12.1501 9.88411 12.1664 9.82205 12.1685 9.75865L12.2759 6.55943C12.2794 6.47065 12.2546 6.38313 12.2053 6.31009C12.156 6.23704 12.085 6.18245 12.0028 6.15454Z" />
</svg>

