<svg viewBox="0 0 13 11" fill="currentColor" >
<path d="M11.8112 4.23608C11.7293 4.26499 11.6404 4.26569 11.5581 4.23808C11.4757 4.21047 11.4044 4.15605 11.3549 4.08307L10.8326 3.32282L7.67915 7.88186C7.61752 7.97102 7.52393 8.03139 7.41896 8.0497C7.31399 8.06801 7.20624 8.04276 7.11939 7.97951L4.33678 5.94985L1.54661 9.984C1.48478 10.073 1.39116 10.1332 1.28622 10.1514C1.18129 10.1697 1.07358 10.1445 0.986659 10.0814L0.168391 9.48448C0.0819493 9.42085 0.0234741 9.32473 0.00568498 9.21705C-0.0121041 9.10937 0.012232 8.99882 0.0733997 8.90947L3.67732 3.69892C3.739 3.60979 3.83262 3.54946 3.93761 3.53119C4.04259 3.51292 4.15034 3.5382 4.23718 3.60147L7.01979 5.63093L9.3594 2.2483L8.4883 1.9924C8.40514 1.96798 8.33189 1.91664 8.27943 1.84602C8.22697 1.77541 8.19811 1.68929 8.19714 1.60048C8.19617 1.51167 8.22314 1.42491 8.27405 1.35311C8.32495 1.28131 8.39707 1.22829 8.47967 1.20196L11.4563 0.252463C11.5153 0.233582 11.5777 0.22894 11.6387 0.238897C11.6997 0.248855 11.7577 0.273144 11.8081 0.309873C11.8584 0.346601 11.8999 0.394776 11.9291 0.450646C11.9584 0.506517 11.9747 0.568573 11.9768 0.63198L12.0843 3.83119C12.0877 3.91998 12.0629 4.0075 12.0137 4.08054C11.9644 4.15358 11.8933 4.20818 11.8112 4.23608Z" />
</svg>
 