<svg viewBox="0 0 15 19" fill="none" xmlns="http://www.w3.org/2000/svg">
<path d="M7.05882 0C4.11765 0 1.76471 2.35294 1.76471 5.29412V7.64706C0.764706 7.64706 0 8.41177 0 9.41177V17.0588C0 18.0588 0.764706 18.8235 1.76471 18.8235H12.3529C13.3529 18.8235 14.1176 18.0588 14.1176 17.0588V9.41177C14.1176 8.41177 13.3529 7.64706 12.3529 7.64706V5.29412C12.3529 2.35294 10 0 7.05882 0ZM12.9412 9.41177V17.0588C12.9412 17.4118 12.7059 17.6471 12.3529 17.6471H1.76471C1.41176 17.6471 1.17647 17.4118 1.17647 17.0588V9.41177C1.17647 9.05882 1.41176 8.82353 1.76471 8.82353H2.35294H11.7647H12.3529C12.7059 8.82353 12.9412 9.05882 12.9412 9.41177ZM2.94118 7.64706V5.29412C2.94118 3 4.76471 1.17647 7.05882 1.17647C9.35294 1.17647 11.1765 3 11.1765 5.29412V7.64706H2.94118Z" fill="currentColor"/>
<path d="M7.05877 10.5884C6.05877 10.5884 5.29407 11.3531 5.29407 12.3531C5.29407 13.1178 5.76466 13.7648 6.47054 14.0001V15.2943C6.47054 15.6472 6.70583 15.8825 7.05877 15.8825C7.41171 15.8825 7.64701 15.6472 7.64701 15.2943V14.0001C8.35289 13.7648 8.82348 13.1178 8.82348 12.3531C8.82348 11.3531 8.05877 10.5884 7.05877 10.5884ZM7.05877 12.9413C6.70583 12.9413 6.47054 12.706 6.47054 12.3531C6.47054 12.0001 6.70583 11.7648 7.05877 11.7648C7.41171 11.7648 7.64701 12.0001 7.64701 12.3531C7.64701 12.706 7.41171 12.9413 7.05877 12.9413Z" fill="currentColor"/>
</svg>
