<svg viewBox="0 0 49 29" >
<path d="M0.508789 1.23371V27.7339C0.508789 28.4248 1.05162 28.9676 1.7425 28.9676H47.538C48.2288 28.9676 48.7717 28.4248 48.7717 27.7339V1.23371C48.7717 0.542834 48.2288 0 47.538 0H1.7425C1.05162 0 0.508789 0.542834 0.508789 1.23371ZM46.0081 26.1547H3.27231V2.76352H46.0081V26.1547Z" />
<path d="M19.2614 23.7861C21.038 23.7861 22.7158 23.2926 24.147 22.4043C25.7261 23.49 27.6014 24.1315 29.6246 24.1315C34.9543 24.1315 39.297 19.7888 39.297 14.4592C39.297 9.12954 34.9543 4.78687 29.6246 4.78687C27.6014 4.78687 25.6768 5.4284 24.147 6.51407C22.7158 5.62579 21.038 5.13231 19.2614 5.13231C14.1292 5.13231 9.93457 9.32693 9.93457 14.4592C9.93457 19.5914 14.1292 23.7861 19.2614 23.7861ZM26.1702 8.19191C27.2066 7.59973 28.3909 7.25429 29.674 7.25429C33.6219 7.25429 36.8789 10.4619 36.8789 14.4592C36.8789 18.4564 33.6712 21.6641 29.674 21.6641C28.3909 21.6641 27.2066 21.3186 26.1702 20.7264C27.7 19.0486 28.5883 16.8773 28.5883 14.4592C28.5883 12.0411 27.6507 9.82042 26.1702 8.19191Z"  />
</svg>

