<svg  viewBox="0 0 287.6 191" >
<style type="text/css">
	.st0{fill:url(#SVGID_1_);}
</style>
<title>facebook-meta</title>
<linearGradient id="SVGID_1_" gradientUnits="userSpaceOnUse" x1="45.1025" y1="91.2412" x2="258.1556" y2="102.0015">
	<stop  offset="0" style="stop-color:#0064E1"/>
	<stop  offset="0.4" style="stop-color:#0064E1"/>
	<stop  offset="0.83" style="stop-color:#0073EE"/>
	<stop  offset="1" style="stop-color:#0082FB"/>
</linearGradient>
<path class="st0" d="M262.6,35.1C247.2,12.2,227.2,0,206.1,0c-12.6,0-25,5.6-36.6,15.6c-7.8,6.8-15.1,15.5-21.8,24.6
	c-8.3-10.5-16-18.5-23.5-24.6C110.1,4,96.5,0,82.8,0C59.3,0,38.7,15.3,24.5,37.3C8.4,62,0,94.1,0,124.8c0,1.1,0,2.1,0,3.1
	c0.4,15.6,3.7,29.3,10.1,39.9l0,0c0,0,0,0,0,0c8.3,13.9,21.7,23.1,43,23.1c17.9,0,31.5-8,47.5-29.3c9.1-12.1,13.7-19.5,31.9-51.8
	l9.1-16c0.8-1.3,1.5-2.7,2.2-4c0.7,1.2,1.5,2.4,2.2,3.6l25.8,43.1c8.7,14.5,19.9,30.6,29.6,39.7c12.5,11.8,23.9,14.6,36.7,14.6
	c1.3,0,2.5,0,3.8-0.1c18.3-1.2,29.5-11.4,35.4-21.6c6.5-11.3,10.3-25.5,10.3-44.9C287.6,91.8,279.4,60.2,262.6,35.1z M117,86.2
	c-9.1,14-22.6,36.2-34,52C68.7,158,61.3,160,53.2,160c-6.8,0-13.2-3.6-16.6-9.5c-3.1-5.1-5.6-13.5-5.6-24.5c0-26.7,7.5-54.4,19.9-73
	c8.7-13.2,19.1-21.8,31.4-21.8c15.2,0,24.7,9.5,32.1,17.4c3.7,3.9,8.8,10.4,14.8,18.9L117,86.2z M218.2,148
	c-5.9-7.2-16.1-22.5-33.9-52.2l-7.4-12.3c-5.3-8.8-10.3-16.7-15.1-23.8c0.8-1.3,1.7-2.6,2.5-3.8c13.4-20,25.4-31.2,40.2-31.2
	c13.7,0,26.2,9.1,35.8,23.9c13.6,20.9,19.7,50.3,19.7,76.7c0,18.5-4.4,34.7-22,34.7C231.2,160,225.8,157.2,218.2,148z"/>
</svg>
