<svg viewBox="0 0 21 25">
<path d="M13.7587 6.17863H16.22L16.1776 4.67943H14.097L16.0524 0.638134L13.8401 0.453017L11.8971 1.94243L12.545 0.258122L10.2773 0L9.53356 2.10473L8.31139 0.475179L4.94929 0.358502L7.17396 4.68009L5.16569 4.61556V6.17797H7.10095C2.97361 8.59363 0 14.9078 0 18.3188C0 22.5948 4.66966 25 10.4292 25C16.1887 25 20.8583 22.5948 20.8583 18.3188C20.859 14.9078 17.886 8.59428 13.7587 6.17863ZM11.3013 20.3701V21.8504H9.87837V20.4718C8.90585 20.4294 7.96201 20.1661 7.41057 19.848L7.84599 18.1506C8.45544 18.485 9.31259 18.7888 10.2558 18.7888C11.0829 18.7888 11.6494 18.4694 11.6494 17.8899C11.6494 17.3365 11.1853 16.9878 10.1111 16.626C8.55713 16.1039 7.49791 15.3771 7.49791 13.9705C7.49791 12.6929 8.39808 11.6904 9.95137 11.3867V10.0074H11.3743V11.285C12.3462 11.3293 13.0006 11.5307 13.479 11.7634L13.058 13.4041C12.6806 13.245 12.0124 12.91 10.9676 12.91C10.0237 12.91 9.71867 13.3161 9.71867 13.7222C9.71867 14.2019 10.2271 14.5063 11.461 14.9711C13.1877 15.5825 13.8851 16.379 13.8851 17.6866C13.8858 18.9765 12.9706 20.08 11.3013 20.3701Z" />
</svg> 
 

