<svg viewBox="0 0 18 20" ><path d="M11.6632 4.9429H13.6322L13.5983 3.74355H11.9338L13.4982 0.510507L11.7284 0.362413L10.1739 1.55394L10.6922 0.206497L8.87808 0L8.28309 1.68379L7.30536 0.380143L4.61568 0.286802L6.39542 3.74407L4.78881 3.69244V4.94238H6.33701C3.03514 6.8749 0.65625 11.9263 0.65625 14.6551C0.65625 18.0758 4.39198 20 8.99958 20C13.6072 20 17.3429 18.0758 17.3429 14.6551C17.3434 11.9263 14.9651 6.87542 11.6632 4.9429ZM9.69729 16.2961V17.4803H8.55895V16.3774C7.78093 16.3435 7.02586 16.1329 6.58471 15.8784L6.93304 14.5205C7.4206 14.788 8.10632 15.031 8.86087 15.031C9.5226 15.031 9.97575 14.7755 9.97575 14.3119C9.97575 13.8692 9.60447 13.5902 8.74511 13.3008C7.50195 12.8831 6.65458 12.3017 6.65458 11.1764C6.65458 10.1544 7.37472 9.35235 8.61735 9.10935V8.00594H9.75569V9.028C10.5332 9.06346 11.0567 9.22459 11.4395 9.41075L11.1026 10.7233C10.8007 10.596 10.2662 10.328 9.4303 10.328C8.67523 10.328 8.43119 10.6529 8.43119 10.9777C8.43119 11.3615 8.83793 11.605 9.82505 11.9768C11.2064 12.466 11.7643 13.1032 11.7643 14.1492C11.7649 15.1812 11.0327 16.064 9.69729 16.2961Z" /></svg>
