<?xml version="1.0" encoding="UTF-8" standalone="no"?>
<!DOCTYPE svg PUBLIC "-//W3C//DTD SVG 1.1//EN" "http://www.w3.org/Graphics/SVG/1.1/DTD/svg11.dtd">
<svg width="100%" height="100%" viewBox="0 0 150 151" version="1.1" xmlns="http://www.w3.org/2000/svg" xmlns:xlink="http://www.w3.org/1999/xlink" xml:space="preserve" xmlns:serif="http://www.serif.com/" style="fill-rule:evenodd;clip-rule:evenodd;stroke-linejoin:round;stroke-miterlimit:2;">
    <g transform="matrix(1.19617,0,0,1.19617,-14.5933,-13.7756)">
        <path d="M74.9,12.5C40.3,12.5 12.2,40.2 12.2,74.3C12.2,108.4 40.3,136.1 74.9,136.1C109.5,136.1 137.6,108.4 137.6,74.3C137.6,40.2 109.5,12.5 74.9,12.5ZM37.5,69.8C55.4,64 72.4,59.7 76.8,50.4C82.3,59.7 95.9,63.1 111.7,68.6C113.6,72.4 114.8,76.5 115.5,80.9L104.8,80.9C102.6,75.6 97.3,71.8 91.2,71.8C85.1,71.8 79.8,75.6 77.6,80.9L72.1,80.9C69.9,75.6 64.6,71.8 58.5,71.8C52.4,71.8 47.1,75.6 44.9,80.9L34.3,80.9C34.8,77 35.9,73.3 37.5,69.8ZM100.1,86.5C100.1,91.4 96.1,95.4 91.2,95.4C86.3,95.4 82.3,91.4 82.3,86.5C82.3,81.6 86.3,77.6 91.2,77.6C96.1,77.7 100.1,81.6 100.1,86.5ZM67.4,86.5C67.4,91.4 63.4,95.4 58.5,95.4C53.6,95.4 49.6,91.4 49.6,86.5C49.6,81.6 53.6,77.6 58.5,77.6C63.4,77.7 67.4,81.6 67.4,86.5ZM74.9,127.7C52.5,127.7 34.4,109.8 33.9,87.5L43.9,87.5C44.4,95.2 50.8,101.2 58.6,101.2C66.4,101.2 72.7,95.2 73.3,87.5L76.7,87.5C77.2,95.2 83.6,101.2 91.4,101.2C99.2,101.2 105.5,95.2 106.1,87.5L116.1,87.5C115.4,109.8 97.3,127.7 74.9,127.7Z" style="fill-rule:nonzero;"/>
    </g>
</svg>
