<svg id="OBJECT" height="512" viewBox="0 0 512 512" width="512" xmlns="http://www.w3.org/2000/svg"><path d="m481 217a35 35 0 0 0 -35-35h-18.95c-17 78.78-87.25 138-171 138s-154.05-59.22-171.05-138h-19a35 35 0 0 0 -35 35v185h450z"/><path d="m0 432v45a35 35 0 0 0 35 35h442a35 35 0 0 0 35-35v-45z"/><path d="m256 290c80 0 145-65 145-145s-65-145-145-145-145 65.05-145 145 65.05 145 145 145zm-71.39-144.76 60-70a15 15 0 0 1 22.78 0l60 70a15 15 0 1 1 -22.78 19.52l-33.61-39.21v79.45a15 15 0 0 1 -30 0v-79.45l-33.61 39.21a15 15 0 1 1 -22.78-19.52z"/></svg>