<svg  viewBox="0 0 40 40" >
<path fill-rule="evenodd" clip-rule="evenodd" d="M35.5281 6.03821C38.3918 9.28826 39.979 13.4621 39.9958 17.7955V17.8543C39.9958 18.4841 39.492 18.988 38.8621 18.988H22.1416C21.5117 18.988 21.0078 18.4841 21.0078 17.8543V1.13374C21.0078 0.503884 21.5117 0 22.1416 0C27.2644 0 32.1353 2.20029 35.5281 6.03821ZM23.2753 2.31787V16.729H37.6864C37.4344 13.3361 36.0907 10.1113 33.8233 7.54986C31.1191 4.48457 27.3232 2.6118 23.2753 2.31787ZM18.9919 21.012H34.5788C35.2002 21.012 35.7125 21.5243 35.7125 22.1457C35.7125 31.9882 27.7007 40 17.8582 40C8.01566 40 0.00390625 31.9882 0.00390625 22.1457C0.00390625 12.3032 8.01566 4.29141 17.8582 4.29141C18.4881 4.29141 18.9919 4.7953 18.9919 5.42515V21.012ZM2.27138 22.1457C2.27138 30.7369 9.26698 37.7325 17.8582 37.7325C26.0715 37.7325 32.8236 31.35 33.403 23.2794H17.8582C17.2283 23.2794 16.7245 22.7756 16.7245 22.1457V6.60088C8.65392 7.18035 2.27138 13.9324 2.27138 22.1457Z"/>
</svg>
