 
<svg viewBox="0 0 40 40" >
<path d="M39.6569 33.0277L32.8985 26.2692L36.2131 22.9547C36.5003 22.6675 36.6183 22.2521 36.525 21.8568C36.4316 21.4615 36.1404 21.1427 35.7551 21.0143L15.8677 14.3852C15.4467 14.2448 14.9823 14.3544 14.6685 14.6683C14.3546 14.9822 14.245 15.4464 14.3854 15.8675L21.0145 35.7549C21.143 36.1402 21.4618 36.4316 21.857 36.5248C22.2523 36.6184 22.6677 36.5002 22.9549 36.213L26.2695 32.8984L33.028 39.6568C33.2568 39.8856 33.5567 40.0001 33.8565 40.0001C34.1564 40.0001 34.4564 39.8857 34.6851 39.6568L39.657 34.6849C40.1147 34.2273 40.1147 33.4853 39.6569 33.0277ZM33.8565 37.1709L27.098 30.4125C26.6405 29.9548 25.8983 29.9548 25.4408 30.4125L22.6383 33.2149L17.35 17.3498L33.2151 22.6382L30.4126 25.4406C29.9554 25.8978 29.955 26.6403 30.4126 27.0979L37.1711 33.8563L33.8565 37.1709Z"/>
<path d="M15.2344 9.375C15.8816 9.375 16.4062 8.85031 16.4062 8.20312V1.17188C16.4062 0.524687 15.8816 0 15.2344 0C14.5872 0 14.0625 0.524687 14.0625 1.17188V8.20312C14.0625 8.85031 14.5872 9.375 15.2344 9.375Z"/>
<path d="M6.11965 4.46203C5.66207 4.00438 4.92004 4.00438 4.46238 4.46203C4.00473 4.91969 4.00473 5.66164 4.46238 6.1193L9.43426 11.0912C9.89184 11.5488 10.6339 11.5488 11.0915 11.0912C11.5492 10.6335 11.5492 9.89156 11.0915 9.43391L6.11965 4.46203Z"/>
<path d="M9.43426 19.3776L4.46238 24.3495C4.00473 24.8071 4.00473 25.5491 4.46238 26.0067C4.91996 26.4644 5.66207 26.4644 6.11965 26.0067L11.0915 21.0348C11.5492 20.5772 11.5492 19.8352 11.0915 19.3776C10.6339 18.9199 9.89184 18.9199 9.43426 19.3776Z"/>
<path d="M21.0347 11.0912L26.0066 6.1193C26.4642 5.66164 26.4642 4.91969 26.0066 4.46203C25.549 4.00438 24.807 4.00438 24.3493 4.46203L19.3774 9.43391C18.9198 9.89156 18.9198 10.6335 19.3774 11.0912C19.835 11.5488 20.5771 11.5488 21.0347 11.0912Z"/>
<path d="M9.375 15.2344C9.375 14.5872 8.85031 14.0625 8.20312 14.0625H1.17188C0.524687 14.0625 0 14.5872 0 15.2344C0 15.8816 0.524687 16.4062 1.17188 16.4062H8.20312C8.85031 16.4062 9.375 15.8816 9.375 15.2344Z"/>
</svg>
