<svg viewBox="0 0 25 23" >
<path fill-rule="evenodd" clip-rule="evenodd" d="M6.95594 11.9729C7.48375 11.9729 7.76626 12.594 7.41945 12.9919L6.05043 14.5621L3.78601 17.1595L3.15531 16.4361L0.152626 12.9918C-0.194238 12.594 0.0883265 11.9728 0.616135 11.9728H1.94719C1.94032 11.8158 1.93636 11.6582 1.93636 11.5C1.93636 8.67833 3.0352 6.02558 5.03038 4.03035C7.0256 2.03518 9.67835 0.93634 12.5 0.93634C15.1608 0.93634 17.6711 1.91375 19.6217 3.69818L17.3934 6.30502C16.1144 5.09958 14.3921 4.35961 12.5 4.35961C8.56278 4.35961 5.35963 7.56275 5.35963 11.5C5.35963 11.6589 5.36539 11.8165 5.37568 11.9729H6.95594ZM22.6079 8.41344L24.8474 10.9824C25.1943 11.3802 24.9117 12.0014 24.384 12.0015H23.0519C22.9296 14.6348 21.8463 17.0931 19.9697 18.9697C17.9745 20.9649 15.3218 22.0637 12.5001 22.0637C10.0712 22.0637 7.76799 21.2488 5.90112 19.7496L8.12959 17.1426C9.33825 18.0809 10.855 18.6404 12.5001 18.6404C16.2687 18.6404 19.3644 15.7056 19.6226 12.0014H18.0442C17.5164 12.0014 17.2339 11.3802 17.5807 10.9824L19.2241 9.09731L21.2141 6.8147L22.6079 8.41344Z" />
</svg>
