<svg viewBox="0 0 16 16" >
<path d="M14.3977 3.2729C12.9161 1.33754 10.6632 0.227539 8.21678 0.227539C6.49681 0.227539 4.8658 0.780116 3.49999 1.82561C3.00581 2.20395 2.55874 2.64143 2.16954 3.12428L1.8225 1.15857C1.7845 0.943596 1.57928 0.799826 1.36452 0.838034L0.32656 1.02123C0.223318 1.03946 0.131564 1.09796 0.0714317 1.18381C0.0112992 1.26971 -0.0122057 1.37591 0.00602902 1.47915L0.830599 6.15004C0.864486 6.34177 1.03123 6.47668 1.21938 6.47668C1.2422 6.47668 1.26533 6.47468 1.28858 6.47057L5.95952 5.646C6.17449 5.60806 6.318 5.40305 6.28005 5.18808L6.09681 4.15012C6.07857 4.04688 6.02013 3.95512 5.93422 3.89499C5.84832 3.83486 5.74213 3.81141 5.63888 3.82959L3.69245 4.1732C3.96624 3.84961 4.27612 3.55443 4.62127 3.29024C5.66276 2.49302 6.90646 2.07167 8.21799 2.07167C10.0846 2.07167 11.8032 2.91822 12.9332 4.39418C13.8958 5.65164 14.3111 7.20876 14.1026 8.77864C13.8941 10.3486 13.0867 11.7433 11.8292 12.7059C10.7847 13.5054 9.54297 13.9281 8.23813 13.9281C7.97483 13.9281 7.70784 13.9104 7.4446 13.8754C5.87472 13.6669 4.47997 12.8596 3.51733 11.602C2.93139 10.8366 2.5376 9.93354 2.3785 8.99034C2.36105 8.88699 2.30324 8.79477 2.21781 8.734C2.13243 8.67323 2.02629 8.64899 1.92294 8.66633L0.883616 8.84167C0.668383 8.87798 0.523348 9.08194 0.559607 9.29717C0.768463 10.5354 1.28473 11.7201 2.05264 12.7232C3.31474 14.372 5.14343 15.4305 7.2017 15.7039C7.54605 15.7496 7.89551 15.7728 8.24034 15.7728C9.9524 15.7728 11.5811 15.2187 12.9502 14.1706C14.599 12.9085 15.6576 11.0798 15.9309 9.02149C16.2045 6.96317 15.6599 4.92162 14.3977 3.2729Z" />
</svg>
