<svg viewBox="0 0 16 16" fill="none" >
<path d="M14 6.5V13.25C14 13.4489 13.921 13.6397 13.7803 13.7803C13.6397 13.921 13.4489 14 13.25 14H2.75C2.55109 14 2.36032 13.921 2.21967 13.7803C2.07902 13.6397 2 13.4489 2 13.25V2.75C2 2.55109 2.07902 2.36032 2.21967 2.21967C2.36032 2.07902 2.55109 2 2.75 2H9.5C9.69891 2 9.88968 1.92098 10.0303 1.78033C10.171 1.63968 10.25 1.44891 10.25 1.25C10.25 1.05109 10.171 0.860322 10.0303 0.71967C9.88968 0.579018 9.69891 0.5 9.5 0.5H2.75C2.15326 0.5 1.58097 0.737053 1.15901 1.15901C0.737053 1.58097 0.5 2.15326 0.5 2.75V13.25C0.5 13.8467 0.737053 14.419 1.15901 14.841C1.58097 15.2629 2.15326 15.5 2.75 15.5H13.25C13.8467 15.5 14.419 15.2629 14.841 14.841C15.2629 14.419 15.5 13.8467 15.5 13.25V6.5C15.5 6.30109 15.421 6.11032 15.2803 5.96967C15.1397 5.82902 14.9489 5.75 14.75 5.75C14.5511 5.75 14.3603 5.82902 14.2197 5.96967C14.079 6.11032 14 6.30109 14 6.5Z" fill="currentColor"/>
<path d="M14.7501 0.5H12.5001C12.3012 0.5 12.1105 0.579018 11.9698 0.71967C11.8292 0.860322 11.7501 1.05109 11.7501 1.25C11.7501 1.44891 11.8292 1.63968 11.9698 1.78033C12.1105 1.92098 12.3012 2 12.5001 2H12.9426L7.46764 7.4675C7.32641 7.60873 7.24707 7.80027 7.24707 8C7.24707 8.19973 7.32641 8.39127 7.46764 8.5325C7.60887 8.67373 7.80041 8.75307 8.00014 8.75307C8.19987 8.75307 8.39141 8.67373 8.53264 8.5325L14.0001 3.0575V3.5C14.0001 3.69891 14.0792 3.88968 14.2198 4.03033C14.3605 4.17098 14.5512 4.25 14.7501 4.25C14.9491 4.25 15.1398 4.17098 15.2805 4.03033C15.4211 3.88968 15.5001 3.69891 15.5001 3.5V1.25C15.5001 1.05109 15.4211 0.860322 15.2805 0.71967C15.1398 0.579018 14.9491 0.5 14.7501 0.5Z" fill="currentColor"/>
</svg>
							
                            