<svg viewBox="0 0 22 25" > 
<path d="M18.9862 4.70728C18.8957 4.69969 16.9795 4.55803 16.9795 4.55803C16.9795 4.55803 15.6487 3.23996 15.5027 3.09411C15.448 3.03976 15.3743 3.01199 15.2972 3L14.2222 24.9377L21.9254 23.2752C21.9254 23.2752 19.221 5.03416 19.2039 4.90908C19.1867 4.78401 19.077 4.71488 18.9862 4.70728Z" /><path fill-rule="evenodd" clip-rule="evenodd" d="M18.9861 4.70714C19.0768 4.71473 19.1866 4.78386 19.2038 4.90894C19.2208 5.03401 21.9253 23.2751 21.9253 23.2751L14.2212 24.9378L0.00292969 22.2801C0.00292969 22.2801 1.82761 8.20223 1.8967 7.70593C1.98823 7.05038 2.01026 7.02841 2.7076 6.81023C2.82096 6.77466 3.70856 6.50014 4.95786 6.11393C5.43952 4.07617 6.9756 0.0664062 10.1908 0.0664062C10.6107 0.0664062 11.097 0.29138 11.4895 0.809259C11.5288 0.807062 11.568 0.805463 11.6061 0.805463C12.9864 0.805463 13.7708 1.97828 14.2154 3.2544C14.6695 3.11434 14.9438 3.02983 14.9603 3.02503C15.071 2.99246 15.3564 2.94811 15.5026 3.09396C15.6486 3.23982 16.9794 4.55789 16.9794 4.55789C16.9794 4.55789 18.8956 4.69955 18.9861 4.70714ZM12.2265 3.86838L13.4296 3.49696C13.1248 2.56789 12.6511 1.7607 11.94 1.67159C12.117 2.17788 12.2273 2.81644 12.2273 3.60964C12.2273 3.69958 12.2269 3.78208 12.2266 3.86566L12.2265 3.86838ZM11.384 3.98966C11.384 3.03242 11.2554 2.32314 11.0578 1.82883C10.2737 2.1645 9.37687 3.0542 8.89842 4.89635L11.3832 4.12872L11.3832 4.12681C11.3836 4.08211 11.384 4.03793 11.384 3.98966ZM10.5148 1.0656C10.381 0.973694 10.2412 0.926741 10.1025 0.926741C7.79311 0.926741 6.49575 3.9517 5.94941 5.80743L7.91348 5.20064C8.37991 2.76769 9.48441 1.54932 10.5148 1.0656ZM10.6561 11.7728L11.606 8.95387C11.606 8.95387 10.964 8.58244 9.66419 8.58244C6.29101 8.58244 4.61994 10.8302 4.61994 13.1528C4.61994 14.7031 5.4909 15.4061 6.25428 16.0223C6.84982 16.503 7.37989 16.9309 7.37989 17.6669C7.37989 18.0729 7.09209 18.6285 6.38473 18.6285C5.30206 18.6285 4.01912 17.5296 4.01912 17.5296L3.36563 19.6837C3.36563 19.6837 4.61373 21.1992 7.05444 21.1992C9.08841 21.1992 10.5969 19.6713 10.5969 17.2987C10.5969 15.4747 9.36623 14.5734 8.39359 13.8611C7.75807 13.3957 7.23269 13.0109 7.23269 12.5021C7.23269 12.2661 7.30799 11.3297 8.80362 11.3297C9.82381 11.3297 10.6561 11.7728 10.6561 11.7728Z" /></svg>
