<svg height="512pt" viewBox="0 0 512 512" width="512pt" xmlns="http://www.w3.org/2000/svg"><path d="m492 76h-178v-56c0-11.046875-8.953125-20-20-20h-76c-11.046875 0-20 8.953125-20 20v56h-178c-11.046875 0-20 8.953125-20 20v236c0 11.046875 8.953125 20 20 20h178v140c0 11.046875 8.953125 20 20 20h76c11.046875 0 20-8.953125 20-20v-140h178c11.046875 0 20-8.953125 20-20v-236c0-11.046875-8.953125-20-20-20zm-254-36h36v36h-36zm36 432h-36v-120h36zm198-160c-63.496094 0-369.285156 0-432 0v-196h432zm0 0"/></svg>