<svg width="139" height="139" viewBox="0 0 139 139" fill="none" xmlns="http://www.w3.org/2000/svg">
<g clip-path="url(#clip0_3013_20128)">
<path d="M2.22262 135.194C4.47404 137.445 7.89185 138.052 10.7802 136.712L89.1711 102.962C93.008 101.183 93.9047 96.1292 90.9143 93.1385L44.4476 46.6718C41.4569 43.6812 36.4029 44.5778 34.6238 48.415L0.704308 126.636C-0.635119 129.525 -0.0287959 132.943 2.22262 135.194V135.194Z" fill="#FFE266"/>
<path d="M67.5241 95.5688L9.89946 120.378C7.86287 121.322 5.47074 120.948 3.81812 119.456L0.704308 126.636C-0.635118 129.525 -0.0287959 132.943 2.22262 135.194C4.47404 137.445 7.89185 138.052 10.7802 136.712L88.4193 103.286C86.6307 102.569 67.815 95.434 67.5241 95.5688V95.5688Z" fill="#EFAA66"/>
<path d="M91.4575 99.7925C96.814 94.4359 89.0261 77.9633 74.0627 62.9999C59.0993 48.0365 42.6267 40.2486 37.2701 45.6051C31.9136 50.9616 39.7015 67.4342 54.665 82.3976C69.6284 97.3611 86.101 105.149 91.4575 99.7925Z" fill="#FFE266"/>
<path d="M77.8826 92.8899C81.3964 89.3761 75.7049 77.9876 65.1703 67.453C54.6357 56.9184 43.2472 51.2269 39.7334 54.7407C36.2196 58.2544 41.9111 69.6429 52.4457 80.1776C62.9804 90.7122 74.3689 96.4037 77.8826 92.8899Z" fill="#EFAA66"/>
<path d="M86.6361 104.276C78.0971 104.276 64.8731 96.5357 52.7077 84.3703C41.661 73.3233 34.0911 61.1572 32.9534 52.62C32.7503 51.0944 33.8217 49.6931 35.3472 49.49C36.8714 49.2874 38.2741 50.3582 38.4772 51.8838C39.4466 59.1558 46.5792 70.3607 56.6485 80.4297C69.5142 93.2954 81.3779 98.905 86.9535 98.6966C88.4893 98.6406 89.787 99.8326 89.8483 101.37C89.9093 102.908 88.7122 104.204 87.1744 104.265C86.9975 104.272 86.8169 104.276 86.6361 104.276Z" fill="#D0844B"/>
<path d="M56.8451 61.2595C56.1912 60.6055 55.6865 59.7838 55.4062 58.8342L52.8296 50.1127C51.8563 46.8192 52.7346 43.2905 55.1212 40.9039L59.8051 36.22C62.192 33.8331 65.7207 32.9551 69.0142 33.9284L78.3961 36.5764L75.2318 25.2872C74.3351 22.2525 76.0686 19.0657 79.1032 18.1691C82.1379 17.2724 85.3247 19.0058 86.2217 22.0405L88.7983 30.762C89.7713 34.0558 88.8933 37.5845 86.5067 39.9708L81.8228 44.6547C79.4362 47.0413 75.9075 47.9193 72.614 46.9463L63.1363 43.8556L66.3961 55.5875C67.2928 58.6221 65.5593 61.809 62.5247 62.7056C60.439 63.3217 58.2815 62.6959 56.8451 61.2595V61.2595Z" fill="#C670F0"/>
<path d="M78.3954 36.5764L69.0135 33.9284C66.1825 33.092 63.1788 33.6242 60.875 35.3052C61.5201 37.8846 62.3407 41.3158 63.1353 43.8553L72.613 46.946C75.5783 47.822 78.7334 47.197 81.0748 45.3223C80.2456 42.7265 79.1845 39.1844 78.3954 36.5764Z" fill="#9D08E5"/>
<path d="M93.1308 57.1813C93.7847 57.8353 94.6067 58.3399 95.5561 58.6202L104.278 61.1968C107.571 62.1698 111.1 61.2918 113.486 58.9053L118.17 54.2213C120.557 51.8345 121.435 48.3058 120.462 45.0122L117.814 35.6304L129.103 38.7943C132.138 39.691 135.325 37.9576 136.221 34.9229C137.118 31.8882 135.385 28.7014 132.35 27.8047L123.629 25.2282C120.335 24.2551 116.806 25.1334 114.42 27.5197L109.736 32.2037C107.349 34.5902 106.471 38.1189 107.444 41.4125L110.535 50.8901L98.8028 47.6303C95.7681 46.7337 92.5813 48.4671 91.6846 51.5018C91.0683 53.5874 91.6944 55.7449 93.1308 57.1813V57.1813Z" fill="#46A6FF"/>
<path d="M120.461 45.0122L117.813 35.6304C115.084 35.0422 111.265 34.2896 108.541 33.6785C107.082 35.9229 106.655 38.7447 107.444 41.4127L110.534 50.8904C113.36 51.5881 116.35 52.0694 119.063 53.1803C120.761 50.8726 121.301 47.8552 120.461 45.0122V45.0122Z" fill="#007DF2"/>
<path d="M106.47 10.0654C104.653 11.8821 101.708 11.8821 99.8909 10.0654C98.0741 8.24862 98.0741 5.30283 99.8909 3.48609C101.708 1.66935 104.653 1.66935 106.47 3.48609C108.287 5.30311 108.287 8.24862 106.47 10.0654Z" fill="#FFA585"/>
<path d="M113.49 87.3545C116.059 87.3545 118.142 85.2716 118.142 82.7023C118.142 80.133 116.059 78.0501 113.49 78.0501C110.921 78.0501 108.838 80.133 108.838 82.7023C108.838 85.2716 110.921 87.3545 113.49 87.3545Z" fill="#78EAC4"/>
<path d="M88.0405 86.8368C86.2237 88.6535 83.2779 88.6535 81.4612 86.8368C79.6444 85.02 79.6444 82.0743 81.4612 80.2575C83.2779 78.4408 86.2237 78.4408 88.0405 80.2575C89.8572 82.0745 89.8572 85.02 88.0405 86.8368Z" fill="#78EAC4"/>
<path d="M88.0405 86.8368C86.2237 88.6535 83.2779 88.6535 81.4612 86.8368C79.6444 85.02 79.6444 82.0743 81.4612 80.2575C83.2779 78.4408 86.2237 78.4408 88.0405 80.2575C89.8572 82.0745 89.8572 85.02 88.0405 86.8368Z" fill="#8BB6EF"/>
<path d="M25.3296 100.476C24.962 100.476 24.5881 100.402 24.2292 100.248C22.8157 99.6392 22.1631 98.0002 22.7719 96.5867L26.3006 88.3907C26.9092 86.9775 28.5487 86.3238 29.9617 86.9334C31.3752 87.542 32.0278 89.181 31.419 90.5945L27.8903 98.7904C27.4364 99.8445 26.409 100.476 25.3296 100.476Z" fill="white"/>
<path d="M32.8081 83.1086C32.4406 83.1086 32.0669 83.0353 31.7075 82.8806C30.2942 82.2721 29.6416 80.6331 30.2505 79.2193L31.326 76.721C31.9346 75.308 33.573 74.6543 34.9873 75.264C36.4006 75.8725 37.0532 77.5115 36.4446 78.9253L35.3691 81.4236C34.9149 82.4774 33.8873 83.1086 32.8081 83.1086V83.1086Z" fill="white"/>
<path d="M54.6742 2.26536L56.9629 8.70141C57.061 8.97699 57.2549 9.19544 57.4999 9.30578L63.2178 11.8821C64.0256 12.246 64.0256 13.533 63.2178 13.8972L57.4999 16.4735C57.2549 16.5839 57.061 16.8023 56.9629 17.0776L54.6742 23.5137C54.3509 24.4229 53.2071 24.4229 52.8839 23.5137L50.5951 17.0776C50.4971 16.8021 50.3031 16.5836 50.0582 16.4735L44.3402 13.8972C43.5324 13.5333 43.5324 12.2463 44.3402 11.8821L50.0582 9.30578C50.3031 9.19544 50.4971 8.97699 50.5951 8.70141L52.8839 2.26536C53.2071 1.35588 54.3509 1.35588 54.6742 2.26536V2.26536Z" fill="#46A6FF"/>
<path d="M132.214 60.124L133.911 64.898C133.984 65.1025 134.128 65.2644 134.31 65.3463L138.551 67.2572C139.15 67.5272 139.15 68.4819 138.551 68.7519L134.31 70.6628C134.128 70.7447 133.984 70.9066 133.911 71.1111L132.214 75.8851C131.974 76.5596 131.125 76.5596 130.886 75.8851L129.188 71.1111C129.115 70.9066 128.971 70.7447 128.79 70.6628L124.548 68.7519C123.949 68.4819 123.949 67.5272 124.548 67.2572L128.79 65.3463C128.971 65.2644 129.115 65.1025 129.188 64.898L130.886 60.124C131.125 59.4497 131.974 59.4497 132.214 60.124V60.124Z" fill="#C670F0"/>
<path d="M100.645 24.173C101.836 24.173 102.801 23.2078 102.801 22.0171C102.801 20.8265 101.836 19.8613 100.645 19.8613C99.4545 19.8613 98.4893 20.8265 98.4893 22.0171C98.4893 23.2078 99.4545 24.173 100.645 24.173Z" fill="#78EAC4"/>
<path d="M133.286 8.67469C133.554 6.49223 132.002 4.50562 129.819 4.23746C127.637 3.9693 125.65 5.52115 125.382 7.70361C125.114 9.88607 126.666 11.8727 128.848 12.1408C131.031 12.409 133.018 10.8571 133.286 8.67469Z" fill="#8BB6EF"/>
</g>
<defs>
<clipPath id="clip0_3013_20128">
<rect width="139" height="139" fill="white"/>
</clipPath>
</defs>
</svg>
