<?xml version="1.0" encoding="UTF-8" standalone="no"?>
<!DOCTYPE svg PUBLIC "-//W3C//DTD SVG 1.1//EN" "http://www.w3.org/Graphics/SVG/1.1/DTD/svg11.dtd">
<svg width="100%" height="100%" viewBox="0 0 1230 963" version="1.1" xmlns="http://www.w3.org/2000/svg" xmlns:xlink="http://www.w3.org/1999/xlink" xml:space="preserve" xmlns:serif="http://www.serif.com/" style="fill-rule:evenodd;clip-rule:evenodd;stroke-linejoin:round;stroke-miterlimit:2;">
    <g transform="matrix(4.16667,0,0,4.16667,0,0)">
        <path d="M78.359,152.572C24.057,152.259 -0.242,116.19 0.001,76.094C0.236,35.99 24.937,0.5 79.239,0.826C133.541,1.126 157.842,36.909 157.602,77.013C157.362,117.103 132.662,152.885 78.359,152.572ZM79.013,40.917C58.121,40.791 55.217,61.108 55.125,76.412C55.043,91.724 57.703,112.354 78.586,112.482C99.464,112.594 102.381,92.016 102.472,76.687C102.561,61.37 99.896,41.03 79.013,40.917Z" style="fill-rule:nonzero;"/>
        <path d="M215.182,152.578C160.893,152.252 136.597,116.183 136.836,76.088C137.059,35.996 161.771,0.493 216.065,0.82C270.362,1.133 294.663,36.915 294.437,77.007C294.197,117.11 269.483,152.883 215.182,152.578ZM215.835,40.91C194.955,40.784 192.053,61.102 191.966,76.418C191.865,91.731 194.529,112.349 215.422,112.475C236.287,112.601 239.207,92.009 239.294,76.693C239.382,61.376 236.714,41.024 215.835,40.91Z" style="fill-rule:nonzero;"/>
        <path d="M20.68,152.58C59.826,170.069 100.449,177.834 144.71,178.087C191.208,178.361 226.468,169.58 271.106,152.58L270.846,200.749C230.894,220.562 187.569,231.244 144.395,230.995C97.345,230.717 63.434,221.054 20.389,200.749L20.68,152.58Z" style="fill-rule:nonzero;"/>
    </g>
</svg>
