<svg viewBox="0 0 18 20" fill="currentColor">
<path d="M6.07166 18.7097H3.54178C2.32553 18.7097 1.41222 17.6017 1.64097 16.4094L2.69653 10.9084C3.28545 7.83927 6.42904 5.95444 9.41783 6.89363C9.75779 7.00044 10.1199 6.81149 10.2267 6.47157C10.3331 6.13286 10.1458 5.77222 9.80823 5.66399C10.2653 4.80177 9.97528 3.71673 9.11492 3.20407L10.3472 0.955202C10.5822 0.526089 10.2713 0 9.78133 0H5.58778C5.09847 0 4.78657 0.525484 5.02198 0.955161L6.25424 3.20403C5.35645 3.73899 5.08702 4.88859 5.61327 5.75686C3.50351 6.52661 1.87194 8.35843 1.42932 10.6653L0.373793 16.1663C-0.00826361 18.1572 1.51855 20 3.54178 20H6.07166C6.42795 20 6.71682 19.7112 6.71682 19.3548C6.71682 18.9985 6.42799 18.7097 6.07166 18.7097ZM8.69218 1.29032L7.78629 2.94355H7.58286L6.67698 1.29032H8.69218ZM7.20069 5.3629C6.8894 5.3629 6.63617 5.10968 6.63617 4.79839C6.63617 4.48798 6.88839 4.23387 7.20105 4.23387H8.16399C8.48976 4.23387 8.73295 4.49552 8.73295 4.79839C8.73295 5.10968 8.47972 5.3629 8.16843 5.3629H7.20069ZM13.5623 11.7835C13.8143 12.0354 13.8143 12.444 13.5623 12.6959L10.3805 15.8777C10.2545 16.0037 10.0894 16.0667 9.92432 16.0667C9.35476 16.0667 9.06049 15.373 9.46811 14.9654L12.6499 11.7835C12.9019 11.5316 13.3104 11.5316 13.5623 11.7835ZM12.841 14.5643C12.3683 14.5643 11.9837 14.9488 11.9837 15.4216C11.9837 15.8943 12.3683 16.2788 12.841 16.2788C13.3137 16.2788 13.6983 15.8943 13.6983 15.4216C13.6983 14.9488 13.3137 14.5643 12.841 14.5643ZM10.1895 13.097C10.6622 13.097 11.0468 12.7125 11.0468 12.2397C11.0468 11.767 10.6622 11.3825 10.1895 11.3825C9.71678 11.3825 9.33218 11.767 9.33218 12.2397C9.33218 12.7125 9.71674 13.097 10.1895 13.097ZM11.5152 7.66129C8.11343 7.66129 5.34585 10.4289 5.34585 13.8306C5.34585 17.2324 8.11343 20 11.5152 20C14.917 20 17.6846 17.2324 17.6846 13.8306C17.6846 10.4289 14.917 7.66129 11.5152 7.66129ZM11.5152 18.7097C8.82488 18.7097 6.63617 16.521 6.63617 13.8306C6.63617 11.1403 8.82488 8.95161 11.5152 8.95161C14.2055 8.95161 16.3942 11.1403 16.3942 13.8306C16.3942 16.521 14.2055 18.7097 11.5152 18.7097Z" />
</svg>

