<svg width="40" height="46" viewBox="0 0 40 46" fill="none" xmlns="http://www.w3.org/2000/svg">
<g clip-path="url(#clip0_440_389)">
<path d="M29.6445 16.3163C32.5629 18.4014 36.1385 19.6283 39.9998 19.6283V12.2013C39.269 12.2017 38.5401 12.1254 37.8251 11.9738V17.82C33.964 17.82 30.3891 16.5931 27.4698 14.508V29.6642C27.4698 37.246 21.3204 43.392 13.7351 43.392C10.9049 43.392 8.27426 42.5367 6.08887 41.0701C8.58302 43.619 12.0612 45.2003 15.9092 45.2003C23.4951 45.2003 29.6448 39.0544 29.6448 31.4721V16.3163H29.6445ZM32.3272 8.82348C30.8357 7.19495 29.8566 5.09016 29.6445 2.7632V1.80798H27.5837C28.1024 4.76535 29.8717 7.292 32.3272 8.82348ZM10.8865 35.2521C10.0533 34.1602 9.60288 32.8242 9.60491 31.4506C9.60491 27.9828 12.4177 25.1714 15.8878 25.1714C16.5345 25.1708 17.1773 25.2702 17.7937 25.4655V17.8726C17.0735 17.7739 16.3466 17.7321 15.6198 17.7475V23.6575C15.0031 23.462 14.36 23.3628 13.7131 23.3632C10.243 23.3632 7.43037 26.1747 7.43037 29.6428C7.4305 32.0949 8.83641 34.218 10.8865 35.2521Z" fill="#FF004F"/>
<path d="M27.4704 14.508C30.3897 16.5931 33.9646 17.8201 37.8257 17.8201V11.9739C35.6705 11.5152 33.7624 10.3893 32.3278 8.82348C29.8723 7.292 28.103 4.7653 27.5843 1.80798H22.1711V31.4719C22.1588 34.9302 19.3509 37.7301 15.8882 37.7301C13.8476 37.7301 12.0348 36.7581 10.8868 35.2522C8.83665 34.218 7.43083 32.0949 7.43083 29.6427C7.43083 26.1747 10.2434 23.3632 13.7135 23.3632C14.3783 23.3632 15.0191 23.4668 15.6202 23.6574V17.7475C8.16814 17.9014 2.1748 23.9872 2.1748 31.4721C2.1748 35.2084 3.66736 38.5956 6.08947 41.0704C8.27481 42.537 10.9055 43.3923 13.7356 43.3923C21.321 43.3923 27.4704 37.246 27.4704 29.6644V14.508H27.4704Z" fill="black"/>
<path d="M37.8253 11.9739V10.3931C35.8817 10.396 33.9765 9.85204 32.3274 8.82328C33.7871 10.4206 35.7092 11.5221 37.8253 11.9739ZM27.5839 1.80801C27.5344 1.52542 27.4963 1.24093 27.47 0.955218V0H19.9959V29.6642C19.9839 33.122 17.1761 35.9221 13.7131 35.9221C12.6963 35.9221 11.7366 35.681 10.8864 35.2522C12.0344 36.7581 13.8472 37.7301 15.8878 37.7301C19.3502 37.7301 22.1585 34.9302 22.1707 31.4719V1.80801H27.5839ZM15.6201 17.7476V16.0646C14.9956 15.9793 14.3659 15.9366 13.7356 15.9369C6.14936 15.9369 0 22.0831 0 29.6642C0 34.4173 2.41681 38.6061 6.08938 41.0702C3.66724 38.5955 2.17472 35.2083 2.17472 31.4719C2.17472 23.9874 8.16778 17.9014 15.6201 17.7476Z" fill="#00F2EA"/>
</g>
<defs>
<clipPath id="clip0_440_389">
<rect width="40" height="45.2003" fill="white"/>
</clipPath>
</defs>
</svg>
