<svg viewBox="0 0 48 28"  >
<path fill-rule="evenodd" clip-rule="evenodd" d="M2 0C0.895431 0 0 0.895432 0 2V26C0 27.1046 0.895431 28 2 28H46C47.1046 28 48 27.1046 48 26V2C48 0.895432 47.1046 0 46 0H2ZM10.0982 20.3775L7.58577 10.8732L4 8.22179H10.336L11.9698 16.5178L15.0451 8.22211H18.3765L13.4256 20.3776L10.0982 20.3775ZM20.8262 20.387H17.6825L19.6494 8.21225H22.7929L20.8262 20.387ZM26.2993 20.5681C24.8883 20.5526 23.5297 20.2582 22.7964 19.9191L23.2361 17.194L23.6409 17.3878C24.6747 17.8422 25.3434 18.0265 26.602 18.0265C27.5061 18.0265 28.4754 17.6526 28.4836 16.8372C28.4888 16.3043 28.0772 15.9226 26.852 15.3264C25.6604 14.7452 24.0791 13.7683 24.0981 12.0188C24.1171 9.65239 26.3051 8 29.4132 8C30.6304 8 31.6088 8.26666 32.2303 8.51105L31.8051 11.1502L31.5227 11.0111C30.9418 10.7638 30.1984 10.5265 29.1694 10.5434C27.9381 10.5434 27.3691 11.085 27.3684 11.5908C27.3606 12.1625 28.0352 12.5364 29.1337 13.1013C30.948 13.97 31.7855 15.0216 31.7745 16.4095C31.7496 18.9356 29.6031 20.5681 26.2993 20.5681ZM39.7986 20.3918C39.7986 20.3918 39.5094 18.992 39.4157 18.5681C39.1731 18.5681 38.1583 18.5661 37.2041 18.5642C36.3576 18.5625 35.5588 18.561 35.3894 18.561C35.2672 18.891 34.7284 20.3919 34.7284 20.3919H31.4257L36.0953 9.23383C36.4248 8.4402 36.9894 8.22466 37.7432 8.22466H40.1723L42.7165 20.392L39.7986 20.3918ZM37.9632 11.5059C37.8793 11.7474 37.7623 12.0676 37.6735 12.3108L37.6733 12.3113C37.5943 12.5275 37.5376 12.6828 37.5461 12.6678C37.5461 12.6678 36.5542 15.3705 36.2935 16.0707H38.9032C38.7785 15.4616 38.1755 12.5563 38.1755 12.5563L37.9632 11.5059Z"  />
</svg>

